<svg width="864" height="864" xmlns="http://www.w3.org/2000/svg"><g fill="none" fill-rule="evenodd" opacity=".053"><path d="M655.442 12.207C650.39 4.577 642.292 0 633.69 0H431.311c-8.597 0-16.7 4.577-21.753 12.207-4.559 7.12-4.559 16.791-1.015 24.415l50.595 105.13C463.69 150.404 472.294 156 481.905 156h101.19c9.611 0 18.215-5.597 22.767-14.247l50.595-105.13C660 28.997 660 19.327 655.442 12.206z" fill="#767D8C"/><path d="M584.195 156H533V0h102.389c8.7 0 16.898 4.577 22.011 12.207 4.613 7.12 4.613 16.791 1.027 24.415l-51.195 105.13C602.626 150.404 593.92 156 584.195 156z" fill="#5D6473"/><path d="M465.483 501c-3.837 0-7.72-.874-11.377-2.702l-83.011-41.738c-12.591-6.333-17.695-21.72-11.396-34.385 6.325-12.685 21.577-17.79 34.201-11.457l83.005 41.738c12.591 6.332 17.695 21.72 11.396 34.384A25.467 25.467 0 0 1 465.483 501zM176.958 814h-25.28C68.038 814 0 745.818 0 662s68.038-152 151.678-152l305.042.046c13.97 0 25.28 11.36 25.28 25.334 0 14.005-11.33 25.287-25.28 25.287l-305.042-.047C95.912 560.62 50.56 606.115 50.56 662s45.353 101.333 101.12 101.333h25.279c13.97 0 25.28 11.334 25.28 25.334 0 13.999-11.31 25.333-25.28 25.333zM330.75 813h-50.5c-13.953 0-25.25-11.185-25.25-25s11.297-25 25.25-25h50.5c13.953 0 25.25 11.185 25.25 25s-11.297 25-25.25 25z" fill="#425688"/><path d="M763.19 560h-.125l-152.864-.073c-13.93 0-25.21-11.19-25.21-25.182 0-14.01 11.306-25.353 25.21-25.353l152.916.073h.046c13.438 0 26.023-5.223 35.497-14.73 9.63-9.68 14.922-22.654 14.922-36.519 0-13.522-5.246-26.218-14.745-35.752-9.48-9.534-22.085-14.757-35.477-14.757h-.118c-42.075.1-83.315 16.638-113.06 46.548l-32.15 32.339c-9.846 9.903-25.8 9.903-35.646 0-9.848-9.904-9.848-25.948 0-35.852l32.148-32.339c39.219-39.463 93.09-61.251 148.583-61.403h.243c26.857 0 52.066 10.498 71.072 29.566 19.084 19.108 29.568 44.56 29.568 71.65 0 27.433-10.563 53.13-29.713 72.396C815.302 549.674 790.047 560 763.19 560z" fill="#384974"/><path d="M633.72 537.1L607.4 641H457.6l-26.32-103.9c-8.1-31.272-1.015-63.55 19.229-89.273C470.252 422.609 501.119 410 532.5 410s62.248 12.609 81.991 37.827c20.244 25.723 27.328 58.001 19.23 89.274z" fill="#EAEAEC"/><path d="M633.736 537.1L607.542 641H533V410c31.23 0 61.95 12.609 81.599 37.827 20.147 25.723 27.197 58.001 19.137 89.274z" fill="#C6C6C7"/><g fill="#767D8C"><path d="M229.625 864C187.754 864 152 829.888 152 787.962c0-41.927 35.754-76.039 77.625-76.039s75.938 34.112 75.938 76.039c0 41.926-34.067 76.038-75.938 76.038zM584 255.692c0 27.881-22.781 50.693-50.625 50.693s-50.625-22.812-50.625-50.693c0-27.88 22.781-50.692 50.625-50.692S584 227.812 584 255.692zM584 357.077c0 27.88-22.781 50.692-50.625 50.692s-50.625-22.811-50.625-50.692c0-27.88 22.781-50.692 50.625-50.692S584 329.196 584 357.077z"/></g><path d="M534 408V307c27.5 0 50 22.725 50 50.5S561.5 408 534 408zM534 306V205c27.5 0 50 22.725 50 50.5S561.5 306 534 306z" fill="#545B6B"/><path d="M659.255 776.44c32.961-23.275 51.726-55.163 51.726-89.576 0-78.445-84.68-76.25-157.197-75.743h-40.059c-70.993-.508-157.706-2.702-157.706 75.743 0 34.413 18.765 66.301 51.726 89.576l-44.12 44.541c-7.606 7.084-9.633 17.714-5.579 27.329 4.06 9.614 13.186 15.69 23.327 15.69h304.254c10.141 0 19.266-6.076 23.327-15.69 4.054-9.615 2.027-20.245-5.58-27.329l-44.119-44.54z" fill="#767D8C"/><path d="M702.396 820.981c7.585 7.084 9.606 17.714 5.564 27.329-4.05 9.614-13.149 15.69-23.262 15.69H533V611.12h20.226c72.314-.507 156.755-2.701 156.755 75.744 0 34.413-18.712 66.301-51.58 89.576l43.995 44.541z" fill="#545B6B"/><path d="M760 129.25c0 41.912-33.943 75.75-76 75.75H380c-42.057 0-76-33.838-76-75.75 0-14.144 11.143-25.25 25.333-25.25h405.334c14.19 0 25.333 11.106 25.333 25.25z" fill="#425688"/><path d="M760 129.25c0 41.912-33.794 75.75-75.667 75.75H533V104h201.778C748.906 104 760 115.106 760 129.25z" fill="#384974"/></g></svg>