<svg width="80px" height="80px" viewBox="0 0 80 80" version="1.1" xmlns="http://www.w3.org/2000/svg" xmlns:xlink="http://www.w3.org/1999/xlink">
    <g id="main-page" stroke="none" stroke-width="1" fill="none" fill-rule="evenodd">
        <g id="Screen-1920" transform="translate(-920.000000, -3239.000000)">
            <g id="order" transform="translate(351.000000, 3051.000000)">
                <g id="choice-bowl" transform="translate(351.000000, 166.000000)">
                    <g id="item-2" transform="translate(196.000000, 0.000000)">
                        <g id="content">
                            <g id="icon-grapefruit" transform="translate(22.000000, 22.000000)">
                                <path d="M40.001875,11.7220313 C38.9282813,11.7220313 37.8690625,11.7839063 36.8265625,11.9004687 C36.8826563,11.9221875 36.9123438,11.9342187 36.9123438,11.9342187 C36.9123438,11.9342187 35.6221875,13.783125 33.32125,15.7584375 C30.8064063,18.1432813 27.0651563,20.9598437 22.3984375,22.3335938 C20.6554688,22.8467188 18.9121875,23.12 17.2340625,23.2284375 C13.7714063,27.9209375 11.723125,33.7210938 11.723125,40.0004688 C11.723125,55.6182813 24.38375,68.2789063 40.0015625,68.2789063 C55.619375,68.2789063 68.28,55.6182813 68.28,40.0004688 C68.28,24.3826563 55.6198438,11.7220313 40.001875,11.7220313 Z" id="Path" fill="#F5B955"></path>
                                <path d="M36.9123437,11.7342188 C36.9123437,11.7342188 31.3607812,19.6951562 22.3985937,22.3335937 C13.4364062,24.9720312 4.45671875,21.2889062 4.45671875,21.2889062 C4.45671875,21.2889062 10.0082812,13.3279687 18.9704687,10.6895312 C27.9326562,8.05109375 36.9123437,11.7342188 36.9123437,11.7342188 Z" id="Path" fill="#46C373"></path>
                                <path d="M35.648125,11.288125 C36.0920313,11.1321875 36.3389063,11.0284375 36.3389063,11.0284375 C36.3389063,11.0284375 31.655,4.4528125 24.1784375,2.33265625 C16.701875,0.21265625 9.26359375,3.3509375 9.26359375,3.3509375 C9.26359375,3.3509375 12.6942188,8.16234375 18.3670313,10.8803125 C18.5671875,10.815 18.7670313,10.749375 18.970625,10.689375 C25.915,8.64515625 32.8684375,10.3959375 35.648125,11.288125 Z" id="Path" fill="#A5DC69"></path>
                                <path d="M37.3523438,11.7346875 C37.1065625,9.50078125 37.5185938,7.4496875 38.3471875,5.698125 C39.8621875,2.49515625 42.5198438,1.749375 43.9692188,1.59015625 C45.6925,1.400625 47.1990625,2.2440625 47.334375,3.47421875 C47.4598437,4.6140625 46.3635937,5.6859375 44.8309375,5.9878125 C44.3421875,6.453125 43.4601562,8.76171875 43.7820313,11.6885937 L37.3523438,11.7346875 Z" id="Path" fill="#46C373"></path>
                                <path d="M70.8448437,34.3660937 C80.9559375,44.4565625 80.9673437,60.8046875 70.8704687,70.8809375 C60.7735937,80.9571875 44.3920312,80.9457813 34.2809375,70.8553125 L70.8448437,34.3660937 Z" id="Path" fill="#FAE196"></path>
                                <path d="M66.3015625,38.8907813 C73.9023438,46.4760938 73.9109375,58.7657813 66.3207813,66.3404688 C58.730625,73.9151563 46.4157813,73.9065625 38.815,66.32125 L66.3015625,38.8907813 Z" id="Path" fill="#FF9155"></path>
                                <g id="Group" transform="translate(38.750000, 52.500000)" fill="#FF6E37">
                                    <path d="M13.8976563,0.016875 L27.6451562,13.764375 C27.6201562,13.7895312 27.5959375,13.8153125 27.5707812,13.8404687 C19.980625,21.4151563 7.66578125,21.4065625 0.065,13.82125 L13.8976563,0.016875 Z" id="Path"></path>
                                    <path d="M13.8140625,19.4340625 L13.8140625,0.1196875 L33.1284375,0.1196875 C33.1284375,10.7867188 24.48125,19.4340625 13.8140625,19.4340625 Z" id="Path"></path>
                                </g>
                                <path d="M52.5640625,71.9340625 L52.5640625,52.6196875 L66.2214063,66.2770312 C62.72625,69.7721875 57.8976563,71.9340625 52.5640625,71.9340625 Z" id="Path" fill="#FF9155"></path>
                                <path d="M9.155625,34.3660937 C-0.95546875,44.4565625 -0.966875,60.8046875 9.13,70.8809375 C19.226875,80.9571875 35.6084375,80.9457813 45.7195313,70.8553125 L9.155625,34.3660937 Z" id="SVGCleanerId_0" fill="#FAE196"></path>
                                <path d="M13.6989063,38.8907813 C6.098125,46.4760938 6.08953125,58.7657813 13.6796875,66.3404688 C21.2698437,73.9151563 33.5846875,73.9065625 41.1854687,66.32125 L13.6989063,38.8907813 Z" id="SVGCleanerId_1" fill="#FF9155"></path>
                                <path d="M27.3526563,52.516875 L13.6051563,66.264375 C13.6301563,66.2895312 13.654375,66.3153125 13.6795313,66.3404687 C21.2696875,73.9151562 33.5845312,73.9065625 41.1853125,66.32125 L27.3526563,52.516875 Z" id="SVGCleanerId_2" fill="#FF6E37"></path>
                                <path d="M8.121875,52.6196875 L27.43625,52.6196875 L27.43625,71.9340625 C16.7692188,71.9340625 8.121875,63.2867187 8.121875,52.6196875 Z" id="SVGCleanerId_3" fill="#FF6E37"></path>
                                <path d="M27.43625,71.9340625 L27.43625,52.6196875 L13.7789063,66.2770312 C17.2740625,69.7721875 22.1026563,71.9340625 27.43625,71.9340625 Z" id="SVGCleanerId_4" fill="#FF9155"></path>
                                <path d="M9.155625,34.3660937 C-0.95546875,44.4565625 -0.966875,60.8046875 9.13,70.8809375 C19.226875,80.9571875 35.6084375,80.9457813 45.7195313,70.8553125" id="Path" fill="#F5B955"></path>
                                <path d="M9.155625,34.3660937 C-0.95546875,44.4565625 -0.966875,60.8046875 9.13,70.8809375 C19.226875,80.9571875 35.6084375,80.9457813 45.7195313,70.8553125 L9.155625,34.3660937 Z" id="SVGCleanerId_0_1_" fill="#FAE196"></path>
                                <path d="M13.6989063,38.8907813 C6.098125,46.4760938 6.08953125,58.7657813 13.6796875,66.3404688 C21.2698437,73.9151563 33.5846875,73.9065625 41.1854687,66.32125 L13.6989063,38.8907813 Z" id="SVGCleanerId_1_1_" fill="#FF9155"></path>
                                <path d="M27.3526563,52.516875 L13.6051563,66.264375 C13.6301563,66.2895312 13.654375,66.3153125 13.6795313,66.3404687 C21.2696875,73.9151562 33.5845312,73.9065625 41.1853125,66.32125 L27.3526563,52.516875 Z" id="SVGCleanerId_2_1_" fill="#FF6E37"></path>
                                <path d="M8.121875,52.6196875 L27.43625,52.6196875 L27.43625,71.9340625 C16.7692188,71.9340625 8.121875,63.2867187 8.121875,52.6196875 Z" id="SVGCleanerId_3_1_" fill="#FF6E37"></path>
                                <path d="M27.43625,71.9340625 L27.43625,52.6196875 L13.7789063,66.2770312 C17.2740625,69.7721875 22.1026563,71.9340625 27.43625,71.9340625 Z" id="SVGCleanerId_4_1_" fill="#FF9155"></path>
                                <path d="M71.9484375,33.2603125 C71.3385938,32.6515625 70.3514062,32.6515625 69.7414062,33.26 L44.7603125,58.179375 C44.149375,58.78875 44.1482813,59.7779687 44.7575,60.3889062 C45.3670313,60.9996875 46.35625,61.0010938 46.9671875,60.3915625 L51.001875,56.366875 L51.001875,65.1660938 C51.001875,66.0289063 51.7014062,66.7284375 52.5642188,66.7284375 C53.4270313,66.7284375 54.1265625,66.0289063 54.1265625,65.1660938 L54.1265625,56.39125 L64.0404688,66.3051562 C59.1715625,70.3682813 52.4690625,71.5640625 46.4442188,69.3710938 L42.3789063,65.3139063 C42.3503125,65.28 42.3209375,65.2467187 42.289375,65.2151563 L14.8025,37.785 C14.7714062,37.7539062 14.73875,37.725625 14.7057812,37.6976563 L13.4826562,36.4770313 C13.5146875,36.3842188 13.53875,36.2871875 13.5529687,36.18625 C14.1351562,32.09 15.6948437,28.1379688 18.064375,24.7335938 C19.621875,24.5898438 21.2282813,24.3067188 22.8396875,23.8323438 C30.6751563,21.525625 35.9651562,15.4959375 37.6354688,13.3715625 C38.0964062,13.3309375 38.5571875,13.3021875 39.01625,13.285 L40.6410937,13.2732813 C51.3670312,13.5345313 61.08,20.3454688 64.9448438,30.3884375 C65.18375,31.009375 65.775625,31.3901563 66.4032813,31.39 C66.5898438,31.39 66.7796875,31.3564063 66.9640625,31.2854688 C67.7692188,30.9754688 68.1709375,30.0715625 67.8610938,29.26625 C65.7182813,23.6979688 61.99125,18.940625 57.0825,15.50875 C53.5165625,13.0154688 49.505625,11.3576563 45.278125,10.6048438 C45.2510938,9.08625 45.5770313,7.9015625 45.8196875,7.340625 C47.793125,6.690625 49.0795313,5.0484375 48.8875,3.30296875 C48.654375,1.18328125 46.418125,-0.25140625 43.7985937,0.036875 C42.025,0.23203125 38.775,1.14 36.9348438,5.02984375 C36.4696875,6.013125 36.1375,7.0515625 35.9390625,8.1184375 C33.851875,5.86515625 29.9075,2.333125 24.6045313,0.82953125 C16.6907813,-1.41453125 8.98046875,1.774375 8.65609375,1.91140625 C8.2190625,2.09578125 7.889375,2.46875 7.7603125,2.925 C7.6309375,3.38140625 7.7159375,3.87171875 7.99140625,4.2578125 C8.11484375,4.43109375 10.5801563,7.8421875 14.7932813,10.6360938 C7.64453125,14.0770313 3.38109375,20.1 3.1753125,20.3951562 C2.9040625,20.7840625 2.8240625,21.275 2.958125,21.73 C3.09203125,22.1848438 3.4253125,22.5542188 3.86390625,22.7342188 C4.12921875,22.8429687 8.53015625,24.6126563 14.2909375,24.8307813 C12.6532813,27.610625 11.4715625,30.6529687 10.8048438,33.8045312 L10.2590625,33.2598438 C9.64921875,32.6510938 8.66171875,32.6510938 8.05171875,33.2598438 C2.86125,38.4404688 0.00234375,45.3254687 0.00234375,52.6470312 C0.00234375,59.9546875 2.851875,66.823125 8.02609375,71.986875 C13.36625,77.3160937 20.3817187,79.98 27.4009375,79.98 C31.7295312,79.98 36.0590625,78.9651562 39.9978125,76.9389062 C42.1129687,78.0296875 44.3623437,78.844375 46.695625,79.3548437 C48.6751562,79.788125 50.6664062,80.0003125 52.6390625,80.0003125 C59.8257812,80.0003125 66.7653125,77.185 71.9740625,71.9867187 C77.1482812,66.8229687 79.9978125,59.9548437 79.9978125,52.646875 C79.9979687,45.3254687 77.1392187,38.4404688 71.9484375,33.2603125 Z M39.759375,6.36625 C40.89,3.97609375 42.765625,3.29421875 44.14,3.143125 C44.2501562,3.1309375 44.3553125,3.12546875 44.4557812,3.12546875 C45.2771875,3.12546875 45.7648437,3.49546875 45.78125,3.645 C45.7953125,3.77328125 45.4325,4.276875 44.52875,4.4546875 C44.2371875,4.51203125 43.9682812,4.65140625 43.753125,4.85625 C42.9420312,5.62890625 42.2178125,7.7178125 42.1571875,10.1378125 L38.8470312,10.1617188 C38.8854687,8.84046875 39.190625,7.56875 39.759375,6.36625 Z M11.9384375,4.10703125 C14.5179687,3.38921875 19.1514062,2.53125 23.7521875,3.83578125 C27.2973437,4.8409375 30.1948438,6.96546875 32.17125,8.7871875 C28.57125,8.08984375 23.5757813,7.7053125 18.529375,9.1909375 C18.519375,9.19390625 18.5095313,9.19703125 18.499375,9.2 C15.558125,7.67578125 13.2885937,5.5625 11.9384375,4.10703125 Z M18.8045312,12.3784375 C18.8414062,12.3676563 18.8779687,12.3560938 18.9139063,12.3426563 C19.07875,12.289375 19.2445312,12.2375 19.4120312,12.1882813 C25.27375,10.4628125 31.2426562,11.65 34.2770312,12.5101563 C32.1926562,14.8773438 27.819375,19.109375 21.9576562,20.835 C16.0932812,22.5614063 10.1209375,21.3721875 7.08875,20.5120313 C9.09265625,18.2296875 13.226875,14.2129688 18.8045312,12.3784375 Z M66.2573438,64.1034375 L56.3359375,54.1820312 L70.378125,54.1820312 C70.0640625,57.85125 68.6357813,61.2896875 66.2573438,64.1034375 Z M56.3245312,51.0573437 L66.2567188,41.1496875 C68.63,43.9634375 70.0570312,47.3960937 70.3757813,51.0573437 L56.3245312,51.0573437 Z M9.6221875,54.1820312 L23.664375,54.1820312 L13.7429687,64.1034375 C11.3645312,61.2896875 9.93640625,57.85125 9.6221875,54.1820312 Z M23.6690625,51.0573438 L9.62328125,51.0573438 C9.94203125,47.3965625 11.3689062,43.9639062 13.7417187,41.1501562 L23.6690625,51.0573438 Z M25.8740625,56.3914062 L25.8740625,70.3782813 C22.3215625,70.0742187 18.845,68.7170312 15.9589063,66.3067188 L25.8740625,56.3914062 Z M28.99875,56.3759375 L38.9204687,66.2775 C36.0314062,68.6975 32.5529687,70.0629687 28.99875,70.375 L28.99875,56.3759375 Z M10.2335937,69.775 C5.6509375,65.2017187 3.1271875,59.1189062 3.1271875,52.6470312 C3.1271875,46.6828125 5.26890625,41.0451562 9.19015625,36.6078125 L11.5232812,38.93625 C8.22796875,42.745625 6.4303125,47.5523437 6.4303125,52.6334375 C6.4303125,58.0690625 8.48890625,63.1867187 12.2371875,67.1001562 C12.3110937,67.251875 12.4096875,67.3945312 12.535625,67.520625 C12.663125,67.648125 12.8076562,67.7473437 12.96125,67.8215625 C16.9998438,71.653125 22.2060938,73.5682812 27.4146875,73.5682812 C32.3103125,73.5682812 37.2075,71.8757812 41.139375,68.4921875 L43.4723437,70.8204687 C38.8896875,74.8451562 33.1448437,76.8579687 27.4009375,76.8575 C21.1821875,76.8565625 14.964375,74.49625 10.2335937,69.775 Z M69.766875,69.775 C63.8846875,75.645 55.5095312,78.085 47.3635937,76.3025 C45.94,75.9907812 44.5517187,75.5515625 43.2129687,74.9939062 C44.2429687,74.2692187 45.23375,73.465625 46.176875,72.5829687 C48.2759375,73.253125 50.4340625,73.5814062 52.5770312,73.58125 C58.0460937,73.58125 63.4126562,71.4495312 67.424375,67.44625 C71.3876562,63.4910937 73.57,58.2304687 73.57,52.633125 C73.57,47.5515625 71.7720312,42.7445312 68.47625,38.9351562 L70.8098437,36.6073437 C74.7310937,41.0446875 76.8729687,46.6825 76.8729687,52.646875 C76.8732812,59.1189062 74.3495312,65.2017187 69.766875,69.775 Z" id="Shape" fill="#000000" fill-rule="nonzero"></path>
                                <path d="M40.001875,16.389375 C39.1390625,16.389375 38.4395312,17.0889063 38.4395312,17.9517187 C38.4395312,18.8145313 39.1390625,19.5140625 40.001875,19.5140625 L40.108125,19.514375 C40.1114062,19.514375 40.1145312,19.514375 40.1176562,19.514375 C40.9759375,19.514375 41.6746875,18.8209375 41.6798437,17.9614062 C41.685,17.0985937 40.9895312,16.395 40.126875,16.3896875 L40.001875,16.389375 Z" id="Path" fill="#000000"></path>
                                <path d="M46.5221875,17.2907812 C45.6915625,17.055 44.828125,17.5376562 44.5928125,18.3675 C44.3573437,19.1975 44.8395312,20.0614062 45.6695312,20.296875 C51.6451562,21.9915625 56.45125,26.2426562 58.855625,31.9601563 C59.1070312,32.5578125 59.6864062,32.9171875 60.2965625,32.9171875 C60.4984375,32.9171875 60.70375,32.8778125 60.9015625,32.7946875 C61.6970312,32.4601563 62.0704687,31.5442188 61.7360937,30.74875 C58.9615625,24.1510937 53.4164062,19.2459375 46.5221875,17.2907812 Z" id="Path" fill="#000000"></path>
                            </g>
                        </g>
                    </g>
                </g>
            </g>
        </g>
    </g>
</svg>