<svg width="80px" height="75px" viewBox="0 0 80 75" version="1.1" xmlns="http://www.w3.org/2000/svg" xmlns:xlink="http://www.w3.org/1999/xlink">
    <g id="main-page" stroke="none" stroke-width="1" fill="none" fill-rule="evenodd">
        <g id="Screen-1920" transform="translate(-920.000000, -3494.000000)">
            <g id="order" transform="translate(351.000000, 3051.000000)">
                <g id="choice-filler" transform="translate(351.000000, 418.000000)">
                    <g id="item-2" transform="translate(196.000000, 0.000000)">
                        <g id="content">
                            <g id="icon-filler" transform="translate(22.000000, 25.000000)">
                                <polygon id="Glass" fill-opacity="0.2" fill="#FFFFFF" fill-rule="nonzero" points="13 37 17 19 28 19 28 3 52 3 52 19 63 19 67 37"></polygon>
                                <polygon id="Filler" fill="#F7F8FB" points="3 73 13 35 67 35 77 73"></polygon>
                                <path d="M13,31 C17.6666667,32.2910907 22,32.936636 26,32.936636 C32,32.936636 32,31.0588235 40,31.0588235 C48,31.0588235 48,32.936636 54,32.936636 C58,32.936636 62.3333333,32.2754657 67,30.953125 L67,35 C62.3333333,36.2910907 58,36.936636 54,36.936636 C48,36.936636 48,35 40,35 C32,35 32,36.936636 26,36.936636 C22,36.936636 17.6666667,36.2910907 13,35 L13,31 Z" id="Path" fill="#000000" fill-rule="nonzero"></path>
                                <path d="M3.93964323,75 C3.67006872,75 3.40172408,74.9636655 3.14185624,74.8919779 C1.54466097,74.4513723 0.607059787,72.7994083 1.04766538,71.202213 L15.5949953,18.468142 C15.8342614,17.6008025 16.6232439,17 17.5229805,17 L25,17 C25.5522847,17 26,16.5522847 26,16 L26,6 C26,5.44771525 25.5522847,5 25,5 C24.4477153,5 24,4.55228475 24,4 L24,1.96574707 C24,1.41346232 24.4477153,0.965747065 25,0.965747065 L55,0.965747065 C55.5522847,0.965747065 56,1.41346232 56,1.96574707 L56,4 C56,4.55228475 55.5522847,5 55,5 C54.4477153,5 54,5.44771525 54,6 L54,16 C54,16.5522847 54.4477153,17 55,17 L62.4770195,17 C63.3767561,17 64.1657386,17.6008025 64.4050047,18.468142 L78.9523346,71.202213 C79.0240223,71.4620808 79.0603568,71.7304255 79.0603568,72 C79.0603568,73.6568542 77.717211,75 76.0603568,75 L3.93964323,75 Z M5,71 L75,71 L61,21 L52,21 C50.8954305,21 50,20.1045695 50,19 L50,5 L30,5 L30,19 C30,20.1045695 29.1045695,21 28,21 L19,21 L5,71 Z" id="Outline" fill="#000000" fill-rule="nonzero"></path>
                                <g id="Bubbles" transform="translate(25.000000, 48.000000)" fill="#000000" fill-rule="nonzero">
                                    <circle id="Oval" cx="13.5" cy="15.5" r="2.5"></circle>
                                    <circle id="Oval" cx="2" cy="8" r="2"></circle>
                                    <circle id="Oval" cx="17" cy="3" r="3"></circle>
                                </g>
                            </g>
                        </g>
                    </g>
                </g>
            </g>
        </g>
    </g>
</svg>