<svg width="70px" height="70px" viewBox="0 0 70 70" version="1.1" xmlns="http://www.w3.org/2000/svg" xmlns:xlink="http://www.w3.org/1999/xlink">
    <g id="main-page" stroke="none" stroke-width="1" fill="none" fill-rule="evenodd">
        <g id="Screen-1920" transform="translate(-729.000000, -3244.000000)">
            <g id="order" transform="translate(351.000000, 3051.000000)">
                <g id="choice-bowl" transform="translate(351.000000, 166.000000)">
                    <g id="item-1">
                        <g id="content">
                            <g id="icon-bowl" transform="translate(27.000000, 27.000000)">
                                <path d="M21.8115126,68.2093696 L20,51 C14.6666667,46.3333333 11,42.3333333 9,39 C7.02580568,35.7096761 5.70118523,31.4449915 5.02613865,26.205946 L5.02614624,26.205945 C5.00835309,26.0678522 4.97618827,25.9319948 4.93017504,25.8005831 L2.88193054,19.9508905 L0.735850244,16.920986 C0.257114853,16.2450922 -7.83633336e-14,15.4372531 -7.99360578e-14,14.6089898 L-1.13686838e-13,4 C-1.18862653e-13,1.790861 1.790861,-7.71049729e-13 4,-7.7537976e-13 L65.9560546,-7.74935671e-13 C68.1651936,-7.75341483e-13 69.9560546,1.790861 69.9560546,4 L69.9560546,14.5824469 C69.9560546,15.4271414 69.688649,16.2501542 69.1921613,16.9335346 L67,19.9508905 L65.0597559,25.8156918 C65.0195616,25.9371877 64.991121,26.0622608 64.9748254,26.189191 C64.3012403,31.4358996 62.9762985,35.7061692 61,39 C59,42.3333333 55.3333333,46.3333333 50,51 L48.1884874,68.2093696 C48.0813407,69.227263 47.2229937,70 46.1994765,70 L23.8005235,70 C22.7770063,70 21.9186593,69.227263 21.8115126,68.2093696 Z" id="Path" fill="#000000" fill-rule="nonzero"></path>
                                <path d="M25.1696517,67 L23.1833178,49.6053805 C23.0667668,48.5847243 22.5619955,47.6480354 21.773608,46.9894245 C16.2366317,42.363891 12.9261391,38.6959876 11.8421302,35.9857143 C10.6854387,33.0937175 9.52874723,29.3379343 8.37205572,24.7183648 L8.37203749,24.7183694 C8.36190115,24.6778871 8.35303433,24.6370974 8.34545007,24.5960604 L7.44958117,19.7486769 C7.40524242,19.508768 7.31738262,19.2789961 7.1903416,19.0707108 L4,13.8401063 L4,6 C4,4.8954305 4.8954305,4 6,4 L63.9560546,4 C65.0606241,4 65.9560546,4.8954305 65.9560546,6 L65.9560546,13.8401063 L62.7186565,19.0484098 C62.5802077,19.2711452 62.4869172,19.5189356 62.444096,19.7776738 L61.6498584,24.5768409 C61.6410073,24.6303222 61.6299855,24.6834215 61.6168202,24.7360073 C60.4623028,29.3474976 59.3074347,33.0973999 58.1522161,35.9857143 C57.0674132,38.6979729 53.7545067,42.3692649 48.2134966,46.9995905 L48.2134919,46.9995849 C47.4327575,47.6520029 46.9299819,48.577417 46.8075027,49.5874637 L44.6960424,67 L25.1696517,67 Z" id="fill" fill="#F5B955" fill-rule="nonzero"></path>
                                <ellipse id="Oval" fill="#000000" fill-rule="nonzero" cx="19.985" cy="32.965" rx="1.985" ry="1.965"></ellipse>
                                <path d="M16,20.0210523 C14.8954305,20.0210523 14,19.1256218 14,18.0210523 L14,18 C14,16.8954305 14.8954305,16 16,16 L67,16 L64,20.0210523 L16,20.0210523 Z M7,27.0210523 L6,23 L64,23 L63,27.0210523 L7,27.0210523 Z" id="Combined-Shape" fill="#000000" fill-rule="nonzero"></path>
                                <path d="M34.5663175,39.3550889 C34.5663175,39.4070892 34.5543177,39.4450888 34.5303175,39.4690889 L34.4103175,39.6190889 L34.3743175,39.7150889 L34.2723175,39.7450889 L34.2423175,39.7990889 L34.0863175,39.8350889 L33.9663175,39.8350889 L33.7323175,39.8050889 L33.6423175,39.8410889 L33.5283175,39.8050889 L33.3663175,39.8350889 L33.3243175,39.7870889 L33.2763175,39.7990889 C33.2363173,39.807089 33.1903178,39.8110889 33.1383175,39.8110889 L33.0243175,39.7930889 L32.8263175,39.7810889 L32.6763175,39.7930889 C32.6043172,39.7650888 32.5463178,39.7510889 32.5023175,39.7510889 C32.4703174,39.7510889 32.406318,39.7670888 32.3103175,39.7990889 L32.1783175,39.7510889 C32.1663175,39.7550889 32.1443177,39.7570889 32.1123175,39.7570889 C32.0763174,39.7570889 32.0503176,39.749089 32.0343175,39.7330889 L31.9383175,39.8350889 L31.8483175,39.8590889 C31.8163174,39.879089 31.7853177,39.8970888 31.7553175,39.9130889 C31.7253174,39.929089 31.7003176,39.9410889 31.6803175,39.9490889 L31.5423175,39.8830889 L31.4823175,39.7810889 L31.4883175,39.6550889 L31.5303175,39.5770889 L31.6083175,39.5170889 L31.6443175,39.4570889 L31.7343175,39.3790889 L31.8003175,39.3610889 L31.8363175,39.3310889 L31.9083175,39.2650889 L31.9143175,39.2530889 L31.9263175,39.2350889 L31.9383175,39.2230889 C31.9423176,39.2190889 31.9453175,39.2150889 31.9473175,39.2110889 C31.9493176,39.2070889 31.9543175,39.201089 31.9623175,39.1930889 L31.9983175,39.1750889 L32.1783175,39.0310889 L32.1963175,39.0010889 C32.2643179,38.9330886 32.3163174,38.8970889 32.3523175,38.8930889 L32.3823175,38.8510889 L32.3943175,38.8150889 L32.4663175,38.7430889 L32.5083175,38.6770889 L32.5863175,38.6650889 L32.6283175,38.5810889 C32.6563177,38.5730889 32.6723175,38.557089 32.6763175,38.5330889 C32.7163177,38.4850887 32.7583173,38.455089 32.8023175,38.4430889 L32.8083175,38.4130889 L32.8983175,38.3590889 L32.9943175,38.2330889 L33.0363175,38.2090889 C33.0163174,38.2090889 33.0003176,38.2110889 32.9883175,38.2150889 L33.1863175,38.0650889 L33.2223175,37.9930889 L33.2943175,37.9450889 L33.3903175,37.7950889 L33.4803175,37.7350889 L33.4983175,37.6990889 L33.3903175,37.6990889 L33.3123175,37.7230889 L33.2043175,37.7050889 L33.1083175,37.7350889 L33.0483175,37.7050889 L32.8743175,37.7650889 C32.8263173,37.7490888 32.7683179,37.7410889 32.7003175,37.7410889 C32.6483173,37.7410889 32.5963178,37.7470889 32.5443175,37.7590889 L32.4783175,37.7290889 L32.3523175,37.7470889 L32.3043175,37.7290889 L32.1963175,37.7590889 L31.9923175,37.7170889 L31.8363175,37.7290889 L31.7463175,37.6990889 L31.5783175,37.6690889 L31.4583175,37.6990889 L31.3683175,37.6210889 L31.3143175,37.4230889 L31.4103175,37.2910889 L31.4763175,37.3030889 L31.5183175,37.2850889 L31.6323175,37.2730889 L31.7223175,37.3030889 L31.8123175,37.3030889 L31.8783175,37.3450889 L32.0343175,37.3450889 L32.1123175,37.3690889 L32.2203175,37.3450889 L32.3043175,37.3690889 C32.3283177,37.3610889 32.3543174,37.3570889 32.3823175,37.3570889 C32.4063177,37.3570889 32.4303174,37.3610889 32.4543175,37.3690889 L32.4483175,37.3570889 L32.5503175,37.3690889 L32.8203175,37.3690889 L33.1743175,37.3510889 L33.2103175,37.3630889 L33.2703175,37.3390889 L33.3963175,37.3390889 L33.6123175,37.2910889 L33.7203175,37.2730889 L33.8103175,37.2850889 L33.9363175,37.2430889 L34.0383175,37.2490889 C34.0663177,37.2450889 34.0903174,37.2420889 34.1103175,37.2400889 C34.1303176,37.2380889 34.1463175,37.2370889 34.1583175,37.2370889 C34.2943182,37.2370889 34.3683175,37.329088 34.3803175,37.5130889 L34.2723175,37.5730889 L34.2123175,37.6330889 L34.1223175,37.6630889 L33.9303175,37.8370889 L33.8883175,37.8490889 L33.7623175,38.0050889 C33.6943172,38.025089 33.6363178,38.0610887 33.5883175,38.1130889 L33.5643175,38.1910889 L33.4683175,38.2750889 L33.3543175,38.4370889 L33.2823175,38.4670889 L33.0303175,38.7610889 L32.9403175,38.7970889 L32.8683175,38.8930889 L32.8323175,38.9050889 C32.8123174,38.925089 32.7913177,38.9470888 32.7693175,38.9710889 C32.7473174,38.995089 32.7223177,39.0170888 32.6943175,39.0370889 L32.6403175,39.1270889 L32.5083175,39.2290889 L32.4003175,39.3550889 L32.3223175,39.4210889 L32.3163175,39.4390889 L32.5203175,39.4150889 L32.5803175,39.3910889 L32.7303175,39.3790889 L32.7903175,39.4090889 L33.0963175,39.3850889 L33.3843175,39.4330889 C33.4243177,39.4250889 33.4483175,39.4210889 33.4563175,39.4210889 C33.4803177,39.4210889 33.5043174,39.4270889 33.5283175,39.4390889 L33.6123175,39.3910889 L33.7383175,39.4390889 L33.8283175,39.4150889 L33.9483175,39.4330889 L33.9963175,39.4330889 C34.0123176,39.4170888 34.0423173,39.403089 34.0863175,39.3910889 C34.1143177,39.3550887 34.1403174,39.333089 34.1643175,39.3250889 L34.1883175,39.2770889 L34.2003175,39.2650889 L34.2003175,39.2230889 L34.2903175,39.0850889 L34.4583175,39.1030889 C34.5303179,39.1990894 34.5663175,39.2830886 34.5663175,39.3550889 Z M36.9303175,39.2890889 C36.9303175,39.3370892 36.8943179,39.3970886 36.8223175,39.4690889 C36.8023174,39.5330892 36.7723177,39.5850887 36.7323175,39.6250889 L36.6963175,39.6310889 L36.6303175,39.7450889 L36.5223175,39.7630889 L36.4083175,39.8350889 L36.3483175,39.9430889 L36.2823175,39.9310889 C36.2383173,39.951089 36.2023177,39.9630889 36.1743175,39.9670889 L36.1383175,40.0210889 C36.1263175,40.0170889 36.1083177,40.0150889 36.0843175,40.0150889 C36.0323173,40.0150889 35.9823178,40.0510886 35.9343175,40.1230889 L35.8503175,40.0510889 C35.8343175,40.0550889 35.8103177,40.0570889 35.7783175,40.0570889 C35.7263173,40.0570889 35.6823177,40.049089 35.6463175,40.0330889 L35.5443175,40.0330889 L35.4963175,40.0030889 C35.3443168,39.9790888 35.2483177,39.9210894 35.2083175,39.8290889 L35.2083175,39.8110889 L35.1363175,39.7750889 L35.1003175,39.6730889 L35.0283175,39.6250889 L35.0283175,39.5350889 L34.9563175,39.2710889 L34.9683175,39.0550889 L34.9923175,38.9590889 L34.9923175,38.8330889 L35.0223175,38.7370889 L35.0163175,38.6950889 L35.0583175,38.6230889 L35.0463175,38.6350889 C35.0463175,38.5990887 35.0563174,38.5610891 35.0763175,38.5210889 L35.0763175,38.4910889 L35.0583175,38.3470889 C35.0583175,38.2790886 35.0883172,38.2190892 35.1483175,38.1670889 C35.1523176,38.1590889 35.1543175,38.147089 35.1543175,38.1310889 C35.1543175,38.1150888 35.1473176,38.0820892 35.1333175,38.0320889 C35.1193175,37.9820887 35.1123175,37.947089 35.1123175,37.9270889 C35.1123175,37.8790887 35.1243174,37.8290892 35.1483175,37.7770889 C35.1803177,37.8250892 35.2263172,37.8490889 35.2863175,37.8490889 L35.3043175,37.8490889 C35.3123176,37.8330888 35.3303174,37.815089 35.3583175,37.7950889 C35.3903177,37.6950884 35.4343173,37.6110893 35.4903175,37.5430889 L35.5143175,37.5190889 C35.5143175,37.5030888 35.5263174,37.4570893 35.5503175,37.3810889 L35.5983175,37.3810889 L35.6103175,37.3510889 L35.6583175,37.3390889 C35.6783176,37.3070888 35.6913175,37.2880889 35.6973175,37.2820889 C35.7033176,37.2760889 35.7463171,37.2510891 35.8263175,37.2070889 C35.8423176,37.1790888 35.8663174,37.153089 35.8983175,37.1290889 C35.9143176,37.1210889 35.9343174,37.113089 35.9583175,37.1050889 L35.9823175,37.0690889 C36.0903181,37.0330887 36.1583174,37.0150889 36.1863175,37.0150889 C36.2183177,37.0150889 36.2483174,37.0230888 36.2763175,37.0390889 L36.3063175,37.0330889 L36.3483175,37.0570889 C36.3963178,37.0930891 36.4443173,37.1230888 36.4923175,37.1470889 L36.5943175,37.2250889 L36.5943175,37.2490889 C36.686318,37.3210893 36.7323175,37.4230883 36.7323175,37.5550889 L36.7143175,37.6150889 L36.7323175,37.8130889 L36.6783175,37.8490889 L36.6183175,38.0050889 L36.5043175,38.1310889 L36.4983175,38.2270889 C36.3703169,38.3190894 36.2523181,38.3930886 36.1443175,38.4490889 C36.1083174,38.5050892 36.0523179,38.5330889 35.9763175,38.5330889 L35.9583175,38.5330889 L35.8443175,38.6050889 L35.7483175,38.6050889 L35.6043175,38.6650889 L35.4963175,38.6110889 L35.4843175,38.6110889 C35.4763175,38.6430891 35.4683176,38.6910886 35.4603175,38.7550889 L35.4123175,38.7910889 L35.4063175,38.8630889 L35.3703175,38.9650889 C35.3823176,39.0610894 35.3883175,39.1230888 35.3883175,39.1510889 L35.3643175,39.1690889 C35.3643175,39.2210892 35.3623176,39.2590888 35.3583175,39.2830889 C35.3583175,39.2870889 35.3563176,39.2930889 35.3523175,39.3010889 L35.3523175,39.3190889 C35.3523175,39.3510891 35.3683174,39.3770888 35.4003175,39.3970889 C35.4123176,39.4450892 35.4323174,39.4750889 35.4603175,39.4870889 L35.5023175,39.5230889 L35.6343175,39.5590889 L35.6343175,39.5770889 L35.6823175,39.5890889 L35.8863175,39.6010889 L36.0063175,39.5830889 L36.0663175,39.5410889 L36.1023175,39.5290889 L36.1623175,39.4390889 L36.1923175,39.4330889 L36.3423175,39.3850889 C36.3583176,39.3570888 36.3843174,39.333089 36.4203175,39.3130889 L36.4383175,39.2830889 C36.5183179,39.2670888 36.5643175,39.2250893 36.5763175,39.1570889 C36.6323178,39.1010886 36.7043171,39.0730889 36.7923175,39.0730889 L36.8163175,39.0730889 C36.8923179,39.1610894 36.9303175,39.2330886 36.9303175,39.2890889 Z M36.3363175,37.5610889 C36.3363175,37.5490889 36.3303176,37.5250891 36.3183175,37.4890889 L36.2883175,37.4830889 L36.2763175,37.4890889 L36.2523175,37.4890889 C36.2443175,37.4930889 36.2363176,37.4950889 36.2283175,37.4950889 C36.2243175,37.4950889 36.2183176,37.4930889 36.2103175,37.4890889 L36.1923175,37.4890889 L36.1323175,37.5310889 L36.0783175,37.5370889 L36.0483175,37.5490889 L35.9463175,37.6810889 L35.8803175,37.7290889 L35.7843175,37.8970889 L35.7303175,37.9330889 C35.7183175,38.0010893 35.6903178,38.0590887 35.6463175,38.1070889 L35.6223175,38.1490889 C35.6663178,38.1210888 35.7163173,38.1070889 35.7723175,38.1070889 L35.8143175,38.0890889 L35.8323175,38.0350889 L35.9163175,38.0410889 L35.9643175,37.9690889 L36.0003175,37.9690889 L36.0663175,37.9930889 L36.0963175,37.9030889 L36.1383175,37.9030889 L36.1383175,37.8370889 L36.2163175,37.8190889 L36.2343175,37.8010889 L36.2463175,37.7470889 L36.3243175,37.6330889 C36.3323176,37.6130888 36.3363175,37.5890891 36.3363175,37.5610889 Z M38.9703175,39.1270889 C38.9703175,39.1710891 38.9543177,39.2070888 38.9223175,39.2350889 C38.8903174,39.2830892 38.8383179,39.3330887 38.7663175,39.3850889 L38.7063175,39.4270889 L38.6523175,39.4990889 L38.5983175,39.5230889 L38.5143175,39.5770889 L38.4543175,39.5830889 L38.4303175,39.6070889 C38.3503171,39.631089 38.2883178,39.6710886 38.2443175,39.7270889 C38.2163174,39.747089 38.1903177,39.7570889 38.1663175,39.7570889 C38.1503175,39.7570889 38.1363176,39.7550889 38.1243175,39.7510889 C38.0563172,39.7910891 37.9683181,39.8110889 37.8603175,39.8110889 C37.7683171,39.8110889 37.7083177,39.803089 37.6803175,39.7870889 L37.5723175,39.7270889 L37.5363175,39.6670889 L37.5363175,39.6490889 C37.5363175,39.5970887 37.5143178,39.5550891 37.4703175,39.5230889 L37.4463175,39.4030889 L37.3983175,39.3490889 L37.3683175,39.1270889 L37.3623175,38.9950889 L37.3683175,38.8990889 L37.3803175,38.8630889 C37.3683175,38.8390888 37.3623175,38.8130891 37.3623175,38.7850889 C37.3823176,38.6170881 37.3923175,38.5110891 37.3923175,38.4670889 L37.3383175,38.3590889 L37.3923175,38.2690889 L37.4103175,38.1190889 L37.3983175,38.0170889 L37.4343175,37.9270889 L37.3983175,37.8070889 L37.4523175,37.7230889 L37.4583175,37.6690889 L37.4583175,37.4590889 L37.4763175,37.4170889 L37.4703175,37.1650889 L37.4883175,36.9070889 L37.4643175,36.8590889 L37.4583175,36.6790889 L37.4763175,36.5170889 L37.4583175,36.4570889 L37.4943175,36.0970889 C37.6623184,36.0570887 37.7363176,36.0370889 37.7163175,36.0370889 C37.7803179,36.0370889 37.8323173,36.0710886 37.8723175,36.1390889 L37.8843175,36.1870889 L37.9743175,36.2770889 L37.9263175,36.4030889 L37.9383175,36.4270889 C37.9303175,36.5030893 37.9203176,36.5530888 37.9083175,36.5770889 L37.9203175,36.7030889 L37.9503175,36.8170889 L37.9083175,36.9430889 C37.9083175,37.0110893 37.8983176,37.0730886 37.8783175,37.1290889 C37.8783175,37.149089 37.8743176,37.1810887 37.8663175,37.2250889 L37.8603175,37.2610889 L37.9143175,37.3270889 L37.8903175,37.3930889 C37.8983176,37.4250891 37.9023175,37.4470889 37.9023175,37.4590889 C37.9023175,37.483089 37.8943176,37.5150887 37.8783175,37.5550889 L37.8903175,37.6090889 L37.8543175,37.8010889 L37.8543175,37.9270889 L37.8123175,38.0530889 L37.8363175,38.1670889 L37.8123175,38.4310889 L37.8303175,38.4610889 L37.8003175,38.5990889 L37.7883175,38.7670889 C37.7803175,38.791089 37.7763175,38.8050889 37.7763175,38.8090889 C37.7763175,38.8770893 37.7743176,38.9330887 37.7703175,38.9770889 L37.8003175,39.0610889 L37.7883175,39.1510889 L37.8243175,39.2290889 L37.8183175,39.2590889 C37.8423177,39.279089 37.8643174,39.3110887 37.8843175,39.3550889 L37.9383175,39.3550889 L38.0163175,39.3790889 L38.0523175,39.3310889 L38.1063175,39.3250889 C38.1303177,39.3170889 38.1483175,39.3130889 38.1603175,39.3130889 L38.1783175,39.3130889 C38.2183177,39.3050889 38.2503174,39.2850891 38.2743175,39.2530889 L38.3103175,39.2350889 C38.3383177,39.1910887 38.3843172,39.161089 38.4483175,39.1450889 C38.4683176,39.1290888 38.5063173,39.0970892 38.5623175,39.0490889 C38.5623175,38.9930886 38.5963172,38.9510891 38.6643175,38.9230889 C38.7243178,38.9230889 38.7643174,38.913089 38.7843175,38.8930889 C38.8643179,38.905089 38.9153174,38.9260888 38.9373175,38.9560889 C38.9593177,38.9860891 38.9703175,39.0430885 38.9703175,39.1270889 Z M40.3007064,39.8377222 C40.2522442,39.8417819 40.1867814,39.8469041 40.1043175,39.8530889 L40.0863175,39.8470889 L40.0383175,39.8410889 L39.9603175,39.8830889 C39.9363174,39.8670888 39.8923179,39.849089 39.8283175,39.8290889 C39.7403171,39.8210889 39.6823177,39.8170889 39.6543175,39.8170889 L39.6063175,39.8170889 C39.5783174,39.8130889 39.5483177,39.8110889 39.5163175,39.8110889 C39.4843174,39.8110889 39.4523177,39.8190888 39.4203175,39.8350889 L39.3363175,39.7810889 L39.2883175,39.7690889 C39.2763175,39.7690889 39.2543177,39.763089 39.2223175,39.7510889 C39.0743168,39.7350888 39.0003175,39.6110901 39.0003175,39.3790889 L39.0003175,39.3250889 L39.1143175,39.2410889 L39.2583175,39.1870889 L39.3663175,39.2410889 L39.4503175,39.2410889 L39.4503175,39.2590889 C39.4903177,39.275089 39.5223174,39.3070887 39.5463175,39.3550889 L39.5943175,39.3610889 L39.5943175,39.4390889 L39.6723175,39.4570889 L39.6903175,39.4690889 L40.4583175,39.4210889 L40.6443175,39.3910889 L40.6623175,39.3910889 L40.6743175,39.3610889 L40.7583175,39.3490889 L40.7703175,39.3310889 C40.854318,39.3190889 40.9323172,39.2950891 41.0043175,39.2590889 L41.0103175,39.2290889 C41.0063175,39.2250889 40.9983176,39.211089 40.9863175,39.1870889 L40.9563175,39.1930889 L40.8783175,39.1330889 L40.8243175,39.1330889 L40.7943175,39.0910889 L40.8123175,39.0670889 L40.7463175,39.0790889 L40.6983175,39.0250889 C40.6863175,39.0290889 40.6663177,39.0310889 40.6383175,39.0310889 C40.5863173,39.0310889 40.5343178,39.021089 40.4823175,39.0010889 L40.4283175,39.0010889 L40.3863175,38.9830889 L40.3023175,39.0130889 L40.2543175,38.9590889 L40.2363175,38.9590889 L40.1523175,38.8930889 L39.9663175,38.8210889 L39.9063175,38.7730889 L39.6783175,38.7310889 L39.6543175,38.6890889 L39.4863175,38.5810889 L39.3963175,38.3830889 L39.3243175,38.2810889 L39.3003175,37.9690889 L39.3243175,37.9330889 C39.3323176,37.8410885 39.3643173,37.7610893 39.4203175,37.6930889 C39.4803178,37.6610888 39.5103175,37.6150892 39.5103175,37.5550889 L39.6003175,37.5370889 C39.6163176,37.5050888 39.6483173,37.4750891 39.6963175,37.4470889 L39.7863175,37.3750889 L40.1643175,37.2310889 L40.2303175,37.2130889 L40.3503175,37.2010889 L40.5483175,37.1470889 L40.9263175,37.1710889 L40.9383175,37.2010889 C40.9743177,37.213089 41.0143173,37.2450887 41.0583175,37.2970889 L41.0583175,37.3270889 L41.1543175,37.3870889 L41.1123175,37.5310889 L41.1003175,37.5850889 C41.0763174,37.6850894 41.020318,37.7350889 40.9323175,37.7350889 C40.8603172,37.7350889 40.8063177,37.7010893 40.7703175,37.6330889 L40.7703175,37.6150889 L40.6983175,37.6090889 L40.6143175,37.6330889 L40.5363175,37.5790889 L40.4943175,37.6090889 C40.4423173,37.6090889 40.3943178,37.6250888 40.3503175,37.6570889 C40.2903172,37.6570889 40.2323178,37.6810887 40.1763175,37.7290889 L40.0983175,37.7290889 L40.0443175,37.7710889 L39.9603175,37.7890889 L39.9483175,37.8010889 L39.9123175,37.8190889 L39.8583175,37.8730889 L39.8403175,37.8790889 L39.7863175,37.9630889 L39.7203175,37.9990889 C39.7043175,38.0510892 39.6943176,38.0950887 39.6903175,38.1310889 C39.6943176,38.1870892 39.7013175,38.2240888 39.7113175,38.2420889 C39.7213176,38.260089 39.7483173,38.2790888 39.7923175,38.2990889 L39.7923175,38.3290889 L39.8703175,38.3710889 C39.9343179,38.395089 39.9823174,38.4210888 40.0143175,38.4490889 L40.1343175,38.4490889 L40.2123175,38.5150889 L40.3503175,38.5330889 L40.4043175,38.5690889 L40.6383175,38.6350889 L40.6683175,38.7010889 L40.6923175,38.6590889 C40.7443178,38.6590889 40.8143171,38.6830887 40.9023175,38.7310889 L41.0103175,38.7490889 L41.0223175,38.7910889 L41.1183175,38.7910889 L41.2863175,38.8870889 C41.3063176,38.9390892 41.3503172,38.9870887 41.4183175,39.0310889 L41.4843175,39.0730889 L41.4663175,39.1450889 C41.4943177,39.1850891 41.5083175,39.2270887 41.5083175,39.2710889 L41.5083175,39.2890889 L41.4363175,39.3730889 L41.3703175,39.5290889 L41.3223175,39.5650889 L41.2803175,39.6490889 L41.1603175,39.6610889 L41.0823175,39.7390889 L40.9623175,39.7390889 L40.8903175,39.7990889 L40.8243175,39.7810889 L40.7463175,39.7990889 L40.7463175,39.8470889 L40.5243175,39.8290889 L40.4283175,39.8350889 L40.3563175,39.8710889 L40.3007064,39.8377222 Z M47.0583175,39.0730889 C47.0383174,39.1290892 47.0123177,39.1710888 46.9803175,39.1990889 C46.9683175,39.2430891 46.9503177,39.2750888 46.9263175,39.2950889 C46.9063174,39.3350891 46.8823177,39.3630888 46.8543175,39.3790889 L46.8303175,39.4150889 C46.8143175,39.439089 46.7923177,39.4510889 46.7643175,39.4510889 L46.7343175,39.5110889 L46.6923175,39.5110889 L46.6623175,39.5650889 L46.6143175,39.5830889 L46.5783175,39.6250889 L46.5483175,39.6490889 C46.4883172,39.6490889 46.4383177,39.6670887 46.3983175,39.7030889 C46.3463173,39.723089 46.2923178,39.7330889 46.2363175,39.7330889 C46.1803173,39.7330889 46.1243178,39.7190891 46.0683175,39.6910889 C46.0043172,39.6870889 45.9723175,39.677089 45.9723175,39.6610889 L45.8883175,39.6490889 L45.8703175,39.6310889 L45.8343175,39.5590889 L45.7683175,39.5050889 C45.7243173,39.4530887 45.7003176,39.4050891 45.6963175,39.3610889 C45.6683174,39.3210887 45.6403177,39.2450895 45.6123175,39.1330889 L45.5523175,39.0370889 L45.5523175,38.9830889 L45.5103175,38.8030889 L45.5163175,38.7310889 L45.4803175,38.5450889 L45.4983175,38.3950889 L45.4683175,38.3530889 L45.4083175,38.5030889 C45.3323172,38.5870893 45.2873176,38.6380888 45.2733175,38.6560889 C45.2593175,38.674089 45.2423176,38.6830889 45.2223175,38.6830889 C45.2183175,38.6830889 45.2103176,38.6810889 45.1983175,38.6770889 L45.1623175,38.7430889 C45.1583175,38.7470889 45.1563175,38.7550889 45.1563175,38.7670889 C45.1563175,38.791089 45.1703174,38.8050889 45.1983175,38.8090889 C45.1903175,38.817089 45.1703177,38.8450887 45.1383175,38.8930889 C45.1223175,38.9250891 45.1083176,38.9470889 45.0963175,38.9590889 L45.0783175,38.9290889 L45.0663175,39.0130889 C45.0143173,39.0530891 44.9783176,39.1130885 44.9583175,39.1930889 C44.9183173,39.2450892 44.856318,39.3190884 44.7723175,39.4150889 L44.6943175,39.4990889 C44.6743174,39.4990889 44.6643175,39.5030889 44.6643175,39.5110889 L44.6643175,39.5230889 C44.6403174,39.5790892 44.5983178,39.6230888 44.5383175,39.6550889 L44.4663175,39.7450889 L44.4243175,39.7450889 L44.2803175,39.7990889 C44.1603169,39.7910889 44.0863177,39.7390894 44.0583175,39.6430889 L44.0523175,39.5770889 L44.0163175,39.4990889 L44.0163175,39.4330889 L43.9683175,39.2590889 L43.9683175,39.2050889 L43.9323175,39.1450889 L43.9563175,38.9590889 C43.9523175,38.9390888 43.9503175,38.9110891 43.9503175,38.8750889 C43.9503175,38.8430888 43.9523175,38.821089 43.9563175,38.8090889 L43.9503175,38.7730889 L43.9503175,38.7490889 L43.9203175,38.6830889 L43.9683175,38.5690889 C43.9603175,38.5370888 43.9483176,38.4850893 43.9323175,38.4130889 L43.9503175,38.3590889 L43.9683175,38.1850889 L43.9203175,38.0590889 L43.9323175,37.9570889 L43.9143175,37.9030889 C43.9103175,37.8910889 43.8963177,37.8530892 43.8723175,37.7890889 L43.8303175,37.8130889 L43.7523175,37.9090889 L43.6803175,37.9750889 L43.5363175,38.1550889 L43.5243175,38.2210889 L43.4223175,38.3290889 L43.3803175,38.4130889 L43.3383175,38.4610889 C43.3263175,38.5490894 43.2823179,38.6110887 43.2063175,38.6470889 L43.2003175,38.7310889 C43.1763174,38.755089 43.1513177,38.7870887 43.1253175,38.8270889 C43.0993174,38.8670891 43.0813176,38.8900889 43.0713175,38.8960889 C43.0613175,38.9020889 43.0443177,38.9150888 43.0203175,38.9350889 L42.9483175,39.0370889 C42.9483175,39.1050893 42.9223178,39.1530888 42.8703175,39.1810889 L42.8703175,39.2170889 C42.8463174,39.2490891 42.8143177,39.2810888 42.7743175,39.3130889 L42.7683175,39.3010889 L42.7503175,39.3850889 C42.7183174,39.3850889 42.6883177,39.4230885 42.6603175,39.4990889 L42.6423175,39.5230889 C42.6383175,39.5870892 42.6043179,39.6350888 42.5403175,39.6670889 L42.4563175,39.7450889 C42.3923172,39.7770891 42.3503176,39.7930889 42.3303175,39.7930889 C42.226317,39.7930889 42.1583177,39.7070898 42.1263175,39.5350889 L42.1023175,39.4030889 C42.0983175,39.3950889 42.0963175,39.383089 42.0963175,39.3670889 C42.0963175,39.3390888 42.1023175,39.3110891 42.1143175,39.2830889 L42.0843175,39.1690889 L42.0963175,39.0730889 L42.0843175,38.9770889 C42.0923176,38.8930885 42.1063174,38.841089 42.1263175,38.8210889 C42.1143175,38.7370885 42.1083175,38.689089 42.1083175,38.6770889 L42.1083175,38.5690889 C42.1243176,38.5410888 42.1443174,38.5050891 42.1683175,38.4610889 L42.1323175,38.4250889 C42.1243175,38.3930888 42.1203175,38.3750889 42.1203175,38.3710889 C42.1203175,38.3430888 42.1443173,38.2950893 42.1923175,38.2270889 L42.1503175,38.1130889 L42.1743175,38.0410889 L42.1383175,37.8670889 L42.1503175,37.7830889 L42.1203175,37.6510889 L42.1263175,37.5610889 L42.0723175,37.4530889 C42.1523179,37.2970881 42.2383171,37.2190889 42.3303175,37.2190889 C42.3783178,37.2190889 42.4243173,37.2390887 42.4683175,37.2790889 L42.4803175,37.3390889 C42.5483179,37.3750891 42.5823175,37.4290886 42.5823175,37.5010889 C42.5823175,37.4890889 42.5763176,37.5310884 42.5643175,37.6270889 L42.5403175,37.6210889 L42.5943175,37.7230889 L42.5583175,37.7710889 L42.5523175,37.7950889 L42.5883175,38.0710889 L42.5763175,38.3050889 L42.5583175,38.3470889 L42.5823175,38.4430889 C42.5943176,38.459089 42.6003175,38.4790888 42.6003175,38.5030889 C42.6003175,38.5350891 42.5843177,38.5670888 42.5523175,38.5990889 C42.5523175,38.6550892 42.5423176,38.7010887 42.5223175,38.7370889 L42.5403175,38.9170889 L42.5403175,38.9890889 L42.5463175,38.9770889 L42.5823175,38.9230889 L42.6663175,38.7730889 L42.6843175,38.7730889 C42.7083177,38.7730889 42.7343174,38.7350893 42.7623175,38.6590889 L42.8043175,38.5450889 C42.8123176,38.5210888 42.8423173,38.4830892 42.8943175,38.4310889 L42.9183175,38.3230889 L42.9903175,38.2150889 L43.0143175,38.1310889 C43.0343176,38.1190889 43.0543174,38.105089 43.0743175,38.0890889 L43.0803175,38.0710889 C43.0923176,38.0550888 43.1363172,38.0130893 43.2123175,37.9450889 L43.2483175,37.9270889 L43.2603175,37.8670889 L43.2903175,37.8490889 C43.3103176,37.7650885 43.3603171,37.7090891 43.4403175,37.6810889 L43.4163175,37.6630889 L43.4403175,37.6510889 C43.4363175,37.6470889 43.4343175,37.641089 43.4343175,37.6330889 C43.4343175,37.6250889 43.4383175,37.613089 43.4463175,37.5970889 L43.5423175,37.5550889 L43.5603175,37.4590889 L43.6263175,37.4590889 C43.6263175,37.4550889 43.6303175,37.441089 43.6383175,37.4170889 L43.7583175,37.3210889 C43.8143178,37.3050888 43.8523174,37.2970889 43.8723175,37.2970889 C43.9203178,37.2970889 43.9863171,37.3110888 44.0703175,37.3390889 L44.1303175,37.4230889 L44.1543175,37.4350889 L44.1843175,37.5070889 L44.2683175,37.6210889 L44.2683175,37.6990889 L44.3223175,37.7590889 L44.3223175,37.8490889 C44.3663178,37.9450894 44.3883175,38.0270886 44.3883175,38.0950889 L44.3703175,38.1670889 L44.4063175,38.2690889 L44.3403175,38.3350889 L44.3643175,38.4670889 L44.3583175,38.5030889 L44.3523175,38.5330889 C44.3443175,38.5730891 44.3403175,38.6030888 44.3403175,38.6230889 C44.3403175,38.643089 44.3503174,38.6830886 44.3703175,38.7430889 L44.3523175,38.8090889 L44.3703175,38.8930889 L44.3523175,38.9110889 C44.3603176,38.9670892 44.3723175,39.0610883 44.3883175,39.1930889 L44.3823175,39.2170889 L44.5743175,39.0070889 L44.6343175,38.8930889 C44.6503176,38.8690888 44.6763174,38.8310892 44.7123175,38.7790889 L44.7123175,38.7670889 C44.7283176,38.7030886 44.7543174,38.659089 44.7903175,38.6350889 C44.7903175,38.6110888 44.8103173,38.5810891 44.8503175,38.5450889 L44.8983175,38.5150889 C44.9143176,38.4470886 44.9563172,38.3910891 45.0243175,38.3470889 L45.0543175,38.2630889 L45.1083175,38.1910889 L45.1683175,38.1310889 C45.2043177,38.1030888 45.2323174,38.0590892 45.2523175,37.9990889 L45.3003175,37.9270889 L45.3243175,37.8370889 L45.3903175,37.8010889 L45.4563175,37.7170889 L45.5223175,37.5730889 C45.5063175,37.5730889 45.4983175,37.569089 45.4983175,37.5610889 L45.5103175,37.5370889 L45.5523175,37.5010889 L45.6003175,37.4050889 C45.6683179,37.3810888 45.7063175,37.3690889 45.7143175,37.3690889 L45.7383175,37.3810889 L45.8463175,37.3870889 L45.9423175,37.4290889 L46.0263175,37.5250889 L46.0443175,37.6090889 L46.0383175,37.6750889 L46.0083175,37.6990889 L45.9423175,37.8250889 L45.9183175,37.9630889 C45.9383176,37.983089 45.9483175,38.0190887 45.9483175,38.0710889 C45.9323175,38.091089 45.9243175,38.1170888 45.9243175,38.1490889 L45.9003175,38.1970889 C45.9083176,38.217089 45.9123175,38.2490887 45.9123175,38.2930889 C45.9123175,38.3290891 45.9103176,38.3550888 45.9063175,38.3710889 L45.8823175,38.4010889 L45.9063175,38.4430889 L45.8643175,38.4970889 C45.8883177,38.4970889 45.9003175,38.5230887 45.9003175,38.5750889 C45.9083176,38.599089 45.9123175,38.6150889 45.9123175,38.6230889 C45.9123175,38.635089 45.9083176,38.6490888 45.9003175,38.6650889 C45.9083176,38.7050891 45.9123175,38.7430887 45.9123175,38.7790889 L45.9123175,38.7910889 C45.9123175,38.799089 45.9383173,38.8810881 45.9903175,39.0370889 L46.0023175,39.0970889 L46.0683175,39.1690889 L46.1043175,39.2530889 L46.1403175,39.2710889 L46.1643175,39.3070889 L46.1943175,39.3130889 L46.2483175,39.3250889 L46.2783175,39.3190889 L46.2963175,39.3190889 C46.3363177,39.3190889 46.3843173,39.3030891 46.4403175,39.2710889 C46.4563176,39.2310887 46.4983172,39.1890891 46.5663175,39.1450889 C46.5703176,39.1250888 46.5943173,39.0870892 46.6383175,39.0310889 L46.7403175,38.9590889 L46.7763175,38.8870889 C46.8083177,38.8670888 46.8423174,38.8570889 46.8783175,38.8570889 C46.9223178,38.8570889 46.9703173,38.8690888 47.0223175,38.8930889 C47.0463177,38.9330891 47.0583175,38.9930885 47.0583175,39.0730889 Z M49.5063175,38.3770889 L49.4703175,38.4850889 C49.4703175,38.5890894 49.4643176,38.6710886 49.4523175,38.7310889 L49.4163175,38.7910889 L49.4163175,38.8570889 L49.3863175,38.8990889 L49.3683175,38.9830889 L49.3023175,39.0490889 L49.2603175,39.1990889 L49.2123175,39.2170889 L49.1883175,39.2830889 L49.1163175,39.3250889 L49.0683175,39.4270889 L48.9963175,39.4630889 L48.9903175,39.5350889 L48.8763175,39.5770889 C48.8243173,39.6490893 48.7603179,39.6950888 48.6843175,39.7150889 L48.6603175,39.7210889 C48.6043173,39.8050893 48.530318,39.8470889 48.4383175,39.8470889 C48.3983173,39.871089 48.3523178,39.8830889 48.3003175,39.8830889 L48.2403175,39.9250889 L48.1803175,39.9430889 L48.1023175,40.0030889 L48.0243175,39.9970889 L47.9403175,40.0210889 L47.8383175,39.9790889 L47.5803175,39.9610889 L47.4903175,39.8230889 L47.3583175,39.6850889 L47.3883175,39.5890889 L47.2983175,39.3850889 L47.3403175,39.3070889 L47.3103175,39.1630889 L47.3403175,39.0730889 C47.3323175,39.0170886 47.3283175,38.977089 47.3283175,38.9530889 C47.3283175,38.8770885 47.3483173,38.8210891 47.3883175,38.7850889 C47.3923176,38.7450887 47.4183173,38.6790894 47.4663175,38.5870889 L47.4963175,38.5870889 L47.4843175,38.5450889 L47.5023175,38.4610889 L47.5023175,38.3710889 C47.5343177,38.3350887 47.5523175,38.311089 47.5563175,38.2990889 L47.5383175,38.2150889 L47.5383175,38.1910889 C47.5663177,38.1350886 47.5803175,38.0770892 47.5803175,38.0170889 L47.7063175,37.8430889 L47.7213175,37.8310889 C47.7313176,37.8230889 47.7403175,37.815089 47.7483175,37.8070889 L47.7423175,37.7830889 L47.7663175,37.7830889 L47.8563175,37.6810889 L47.8623175,37.5430889 L48.0123175,37.4890889 C48.0683178,37.4530887 48.1043175,37.3930893 48.1203175,37.3090889 L48.1983175,37.3090889 C48.2423178,37.2850888 48.2823174,37.2730889 48.3183175,37.2730889 C48.3543177,37.2730889 48.3883174,37.2810888 48.4203175,37.2970889 L48.4863175,37.3030889 L48.6423175,37.2430889 L48.7263175,37.3210889 L48.7923175,37.3630889 L48.8403175,37.3630889 L48.9303175,37.4110889 L48.9783175,37.4110889 C49.0303178,37.4590892 49.0903172,37.5250885 49.1583175,37.6090889 L49.1703175,37.6390889 L49.2123175,37.6630889 L49.3383175,37.8250889 L49.4523175,38.1070889 L49.4523175,38.1670889 L49.5063175,38.3770889 Z M49.1103175,38.5210889 L49.1043175,38.4910889 C49.0763174,38.4630888 49.0603176,38.4330891 49.0563175,38.4010889 L49.0743175,38.3710889 L49.0203175,38.2570889 L49.0323175,38.1430889 L49.0083175,38.1130889 C48.9563173,38.0730887 48.9283176,38.041089 48.9243175,38.0170889 C48.8883174,38.0010888 48.8703175,37.9610892 48.8703175,37.8970889 L48.8343175,37.8910889 L48.7623175,37.7710889 L48.7083175,37.7290889 L48.5823175,37.6810889 L48.5343175,37.6690889 C48.5103174,37.6690889 48.4943176,37.661089 48.4863175,37.6450889 L48.3663175,37.7770889 L48.2883175,37.9450889 L48.1623175,38.0110889 L48.1443175,38.0770889 L48.0843175,38.1070889 L48.0603175,38.2630889 L47.9883175,38.2990889 C47.9723175,38.3550892 47.9643175,38.4070887 47.9643175,38.4550889 L47.8683175,38.5450889 L47.8983175,38.5630889 C47.8983175,38.6110892 47.8803177,38.6530887 47.8443175,38.6890889 C47.8323175,38.7250891 47.8163176,38.7650887 47.7963175,38.8090889 L47.7963175,38.8570889 L47.7783175,38.8810889 L47.7843175,38.9530889 L47.7183175,39.1150889 L47.7303175,39.1450889 L47.7303175,39.3130889 L47.7063175,39.3970889 L47.7123175,39.4810889 L47.7663175,39.5590889 L47.8503175,39.5890889 L47.8803175,39.6010889 L47.9283175,39.5770889 L48.0843175,39.5890889 L48.1083175,39.5290889 L48.1323175,39.5290889 C48.1563177,39.5290889 48.1703175,39.5350889 48.1743175,39.5470889 L48.2283175,39.5290889 L48.2763175,39.5470889 L48.3543175,39.4930889 L48.3663175,39.4750889 L48.4203175,39.4630889 C48.4483177,39.4190887 48.514317,39.3750891 48.6183175,39.3310889 L48.6303175,39.3010889 L48.7503175,39.2170889 L48.8163175,39.1210889 L48.9123175,39.0730889 L48.9183175,39.0430889 L48.9483175,38.9770889 L48.9483175,38.8990889 L49.0203175,38.8390889 L49.0443175,38.7970889 L49.0743175,38.7610889 C49.0583175,38.7130887 49.0503175,38.679089 49.0503175,38.6590889 C49.0503175,38.6230887 49.0623174,38.5850891 49.0863175,38.5450889 L49.1103175,38.5210889 Z M53.4843175,39.3370889 L53.4483175,39.4030889 C53.4483175,39.5190895 53.4083179,39.6090886 53.3283175,39.6730889 C53.3283175,39.7130891 53.3143177,39.7450888 53.2863175,39.7690889 L53.2563175,39.8350889 L53.1783175,39.8890889 L53.1423175,39.9550889 L52.9023175,40.0810889 L52.7883175,40.1110889 L52.6143175,40.1230889 L52.5183175,40.0810889 L52.4403175,40.0870889 L52.3623175,40.0330889 L52.3023175,40.0270889 L52.0623175,39.9010889 L51.8463175,39.7210889 C51.7823172,39.6650886 51.6863182,39.5850894 51.5583175,39.4810889 L51.4263175,39.3010889 L51.3183175,39.2110889 L51.3003175,39.1690889 L51.2463175,39.1030889 C51.1943173,39.0390886 51.1323179,38.9710893 51.0603175,38.8990889 L50.9583175,38.8630889 L50.8443175,38.6350889 L50.8623175,38.5450889 C50.8863177,38.4170883 50.950317,38.345089 51.0543175,38.3290889 L51.1683175,38.3650889 L51.2643175,38.4610889 L51.3663175,38.5270889 L51.4623175,38.5270889 L51.4863175,38.5450889 C51.5183177,38.5450889 51.5443174,38.5470889 51.5643175,38.5510889 C51.6043177,38.5310888 51.674317,38.509089 51.7743175,38.4850889 L51.8283175,38.4730889 L51.8643175,38.3950889 L52.0083175,38.3950889 C52.0523178,38.3590887 52.0983173,38.3390889 52.1463175,38.3350889 L52.1583175,38.3350889 C52.1703176,38.3070888 52.1863174,38.2730891 52.2063175,38.2330889 L52.3203175,38.1790889 L52.3683175,38.1310889 L52.4583175,37.9810889 L52.5003175,37.9810889 C52.5163176,37.9410887 52.5323175,37.8850893 52.5483175,37.8130889 L52.6023175,37.7770889 L52.5603175,37.7530889 L52.5843175,37.6510889 C52.5763175,37.6350888 52.5543177,37.621089 52.5183175,37.6090889 L52.4463175,37.6330889 L52.4223175,37.5850889 L52.3623175,37.5610889 L52.3443175,37.5370889 C52.2843172,37.5290889 52.1983181,37.521089 52.0863175,37.5130889 L52.0863175,37.4890889 L52.0503175,37.5130889 C52.0183174,37.5050889 51.9943176,37.5010889 51.9783175,37.5010889 C51.9263173,37.5010889 51.850318,37.5290886 51.7503175,37.5850889 L51.6663175,37.5850889 C51.5143168,37.6370892 51.4283176,37.6750888 51.4083175,37.6990889 L51.2763175,37.7410889 L51.0903175,37.8910889 L50.9163175,38.0650889 L50.9163175,38.0890889 L50.8023175,38.2870889 L50.7663175,38.4010889 L50.7423175,38.4130889 L50.7423175,38.4370889 C50.7303175,38.461089 50.7203176,38.4830888 50.7123175,38.5030889 L50.6763175,38.5210889 L50.6883175,38.5390889 L50.6703175,38.5690889 C50.6663175,38.577089 50.6643175,38.5870889 50.6643175,38.5990889 C50.6643175,38.619089 50.6723175,38.6370888 50.6883175,38.6530889 C50.6883175,38.7370893 50.6683177,38.7910888 50.6283175,38.8150889 C50.6203175,38.831089 50.6163175,38.8470888 50.6163175,38.8630889 C50.6163175,38.875089 50.6183175,38.8850889 50.6223175,38.8930889 C50.6223175,38.9610893 50.6083177,39.0170887 50.5803175,39.0610889 C50.5603174,39.081089 50.5483176,39.0950889 50.5443175,39.1030889 L50.5623175,39.1930889 L50.5443175,39.3130889 L50.5503175,39.4090889 C50.5183174,39.4810893 50.5023175,39.5390887 50.5023175,39.5830889 C50.5103176,39.6230891 50.5143175,39.6450889 50.5143175,39.6490889 C50.5143175,39.6930891 50.4893178,39.7390887 50.4393175,39.7870889 C50.3893173,39.8350892 50.3423178,39.8590889 50.2983175,39.8590889 C50.2423173,39.8590889 50.1843178,39.8250893 50.1243175,39.7570889 L50.0583175,39.5710889 L50.0763175,39.4630889 L50.0583175,39.2290889 L50.0763175,39.1690889 L50.0763175,38.9770889 L50.0883175,38.8990889 L50.0883175,38.8330889 C50.0883175,38.7530885 50.0923175,38.6720893 50.1003175,38.5900889 C50.1083176,38.5080885 50.1123175,38.4650889 50.1123175,38.4610889 L50.1123175,38.3590889 L50.1183175,38.3050889 L50.1183175,38.1370889 L50.1363175,38.0890889 L50.1183175,38.0170889 L50.1423175,37.8190889 L50.1423175,37.6090889 L50.1183175,37.4890889 L50.1483175,37.4410889 L50.1423175,37.4170889 L50.1183175,37.0930889 L50.0763175,36.8950889 L50.0763175,36.8410889 L50.1123175,36.6370889 L50.0883175,36.5590889 L50.0763175,36.4150889 C50.0683175,36.3190884 50.0643175,36.2770889 50.0643175,36.2890889 C50.0643175,36.1490882 50.1743164,36.075089 50.3943175,36.0670889 L50.5263175,35.9950889 L50.5023175,36.2890889 L50.5263175,36.4570889 L50.4843175,36.6310889 L50.4963175,36.8230889 L50.5263175,36.9310889 L50.5083175,37.0330889 L50.5203175,37.1770889 L50.5023175,37.2970889 L50.5323175,37.4230889 L50.5203175,37.4530889 L50.5443175,37.5130889 L50.5143175,37.6810889 L50.5143175,37.7170889 L50.5443175,37.8310889 C50.5243174,37.839089 50.5143175,37.8690887 50.5143175,37.9210889 L50.4963175,38.0650889 L50.5083175,38.1190889 L50.5803175,37.9930889 L50.6163175,37.8550889 L50.7003175,37.7170889 C50.7003175,37.6770887 50.7143174,37.6410891 50.7423175,37.6090889 L50.8083175,37.6090889 L50.8563175,37.5070889 L50.9943175,37.4410889 C51.0503178,37.3850886 51.1143172,37.345089 51.1863175,37.3210889 L51.2223175,37.2910889 L51.3183175,37.2430889 L51.3963175,37.2250889 C51.480318,37.1530886 51.6623161,37.105089 51.9423175,37.0810889 L52.4103175,37.1170889 L52.5063175,37.1710889 L52.5543175,37.1770889 L52.6563175,37.2850889 L52.6623175,37.2490889 C52.7143178,37.273089 52.7523174,37.3110887 52.7763175,37.3630889 C52.7963176,37.3590889 52.8043176,37.3570889 52.8003175,37.3570889 C52.8163176,37.3570889 52.8323175,37.3630889 52.8483175,37.3750889 L52.9743175,37.6330889 L52.9683175,37.6630889 C52.9883176,37.7030891 52.9983175,37.7390888 52.9983175,37.7710889 C52.9983175,37.8270892 52.9763178,37.8830886 52.9323175,37.9390889 L52.9323175,37.9750889 L52.8483175,38.1970889 L52.7223175,38.3710889 L52.6863175,38.3770889 L52.6143175,38.4730889 C52.5703173,38.4730889 52.5363177,38.461089 52.5123175,38.4370889 L52.5123175,38.5330889 L52.4643175,38.5630889 L52.4283175,38.6290889 L52.3203175,38.6590889 C52.3043175,38.6630889 52.2863176,38.6810888 52.2663175,38.7130889 C51.9903162,38.8210895 51.8363177,38.8750889 51.8043175,38.8750889 C51.7923175,38.8750889 51.7693177,38.8720889 51.7353175,38.8660889 C51.7013174,38.8600889 51.6723177,38.8570889 51.6483175,38.8570889 C51.6323175,38.8570889 51.6203176,38.8590889 51.6123175,38.8630889 C51.6163176,38.875089 51.6383173,38.9190885 51.6783175,38.9950889 L51.7563175,39.0430889 L51.8643175,39.2350889 L52.0263175,39.3310889 L52.0383175,39.3550889 L52.0923175,39.3850889 L52.1703175,39.4750889 L52.3143175,39.5890889 L52.5063175,39.6670889 L52.6143175,39.6970889 L52.6923175,39.6910889 L52.7343175,39.6730889 C52.8143179,39.6610889 52.8903172,39.6290892 52.9623175,39.5770889 L53.0643175,39.3910889 L53.1243175,39.3190889 L53.1603175,39.2110889 C53.2203178,39.1910888 53.2683174,39.1810889 53.3043175,39.1810889 C53.396318,39.1810889 53.4563174,39.2330884 53.4843175,39.3370889 Z M55.6023175,39.2890889 C55.6023175,39.3370892 55.5663179,39.3970886 55.4943175,39.4690889 C55.4743174,39.5330892 55.4443177,39.5850887 55.4043175,39.6250889 L55.3683175,39.6310889 L55.3023175,39.7450889 L55.1943175,39.7630889 L55.0803175,39.8350889 L55.0203175,39.9430889 L54.9543175,39.9310889 C54.9103173,39.951089 54.8743177,39.9630889 54.8463175,39.9670889 L54.8103175,40.0210889 C54.7983175,40.0170889 54.7803177,40.0150889 54.7563175,40.0150889 C54.7043173,40.0150889 54.6543178,40.0510886 54.6063175,40.1230889 L54.5223175,40.0510889 C54.5063175,40.0550889 54.4823177,40.0570889 54.4503175,40.0570889 C54.3983173,40.0570889 54.3543177,40.049089 54.3183175,40.0330889 L54.2163175,40.0330889 L54.1683175,40.0030889 C54.0163168,39.9790888 53.9203177,39.9210894 53.8803175,39.8290889 L53.8803175,39.8110889 L53.8083175,39.7750889 L53.7723175,39.6730889 L53.7003175,39.6250889 L53.7003175,39.5350889 L53.6283175,39.2710889 L53.6403175,39.0550889 L53.6643175,38.9590889 L53.6643175,38.8330889 L53.6943175,38.7370889 L53.6883175,38.6950889 L53.7303175,38.6230889 L53.7183175,38.6350889 C53.7183175,38.5990887 53.7283174,38.5610891 53.7483175,38.5210889 L53.7483175,38.4910889 L53.7303175,38.3470889 C53.7303175,38.2790886 53.7603172,38.2190892 53.8203175,38.1670889 C53.8243176,38.1590889 53.8263175,38.147089 53.8263175,38.1310889 C53.8263175,38.1150888 53.8193176,38.0820892 53.8053175,38.0320889 C53.7913175,37.9820887 53.7843175,37.947089 53.7843175,37.9270889 C53.7843175,37.8790887 53.7963174,37.8290892 53.8203175,37.7770889 C53.8523177,37.8250892 53.8983172,37.8490889 53.9583175,37.8490889 L53.9763175,37.8490889 C53.9843176,37.8330888 54.0023174,37.815089 54.0303175,37.7950889 C54.0623177,37.6950884 54.1063173,37.6110893 54.1623175,37.5430889 L54.1863175,37.5190889 C54.1863175,37.5030888 54.1983174,37.4570893 54.2223175,37.3810889 L54.2703175,37.3810889 L54.2823175,37.3510889 L54.3303175,37.3390889 C54.3503176,37.3070888 54.3633175,37.2880889 54.3693175,37.2820889 C54.3753176,37.2760889 54.4183171,37.2510891 54.4983175,37.2070889 C54.5143176,37.1790888 54.5383174,37.153089 54.5703175,37.1290889 C54.5863176,37.1210889 54.6063174,37.113089 54.6303175,37.1050889 L54.6543175,37.0690889 C54.7623181,37.0330887 54.8303174,37.0150889 54.8583175,37.0150889 C54.8903177,37.0150889 54.9203174,37.0230888 54.9483175,37.0390889 L54.9783175,37.0330889 L55.0203175,37.0570889 C55.0683178,37.0930891 55.1163173,37.1230888 55.1643175,37.1470889 L55.2663175,37.2250889 L55.2663175,37.2490889 C55.358318,37.3210893 55.4043175,37.4230883 55.4043175,37.5550889 L55.3863175,37.6150889 L55.4043175,37.8130889 L55.3503175,37.8490889 L55.2903175,38.0050889 L55.1763175,38.1310889 L55.1703175,38.2270889 C55.0423169,38.3190894 54.9243181,38.3930886 54.8163175,38.4490889 C54.7803174,38.5050892 54.7243179,38.5330889 54.6483175,38.5330889 L54.6303175,38.5330889 L54.5163175,38.6050889 L54.4203175,38.6050889 L54.2763175,38.6650889 L54.1683175,38.6110889 L54.1563175,38.6110889 C54.1483175,38.6430891 54.1403176,38.6910886 54.1323175,38.7550889 L54.0843175,38.7910889 L54.0783175,38.8630889 L54.0423175,38.9650889 C54.0543176,39.0610894 54.0603175,39.1230888 54.0603175,39.1510889 L54.0363175,39.1690889 C54.0363175,39.2210892 54.0343176,39.2590888 54.0303175,39.2830889 C54.0303175,39.2870889 54.0283176,39.2930889 54.0243175,39.3010889 L54.0243175,39.3190889 C54.0243175,39.3510891 54.0403174,39.3770888 54.0723175,39.3970889 C54.0843176,39.4450892 54.1043174,39.4750889 54.1323175,39.4870889 L54.1743175,39.5230889 L54.3063175,39.5590889 L54.3063175,39.5770889 L54.3543175,39.5890889 L54.5583175,39.6010889 L54.6783175,39.5830889 L54.7383175,39.5410889 L54.7743175,39.5290889 L54.8343175,39.4390889 L54.8643175,39.4330889 L55.0143175,39.3850889 C55.0303176,39.3570888 55.0563174,39.333089 55.0923175,39.3130889 L55.1103175,39.2830889 C55.1903179,39.2670888 55.2363175,39.2250893 55.2483175,39.1570889 C55.3043178,39.1010886 55.3763171,39.0730889 55.4643175,39.0730889 L55.4883175,39.0730889 C55.5643179,39.1610894 55.6023175,39.2330886 55.6023175,39.2890889 Z M55.0083175,37.5610889 C55.0083175,37.5490889 55.0023176,37.5250891 54.9903175,37.4890889 L54.9603175,37.4830889 L54.9483175,37.4890889 C54.9443175,37.4890889 54.9363176,37.4890889 54.9243175,37.4890889 C54.9163175,37.4930889 54.9083176,37.4950889 54.9003175,37.4950889 C54.8963175,37.4950889 54.8903176,37.4930889 54.8823175,37.4890889 C54.8743175,37.4890889 54.8683176,37.4890889 54.8643175,37.4890889 L54.8043175,37.5310889 L54.7503175,37.5370889 L54.7203175,37.5490889 L54.6183175,37.6810889 L54.5523175,37.7290889 L54.4563175,37.8970889 L54.4023175,37.9330889 C54.3903175,38.0010893 54.3623178,38.0590887 54.3183175,38.1070889 L54.2943175,38.1490889 C54.3383178,38.1210888 54.3883173,38.1070889 54.4443175,38.1070889 L54.4863175,38.0890889 L54.5043175,38.0350889 L54.5883175,38.0410889 L54.6363175,37.9690889 L54.6723175,37.9690889 L54.7383175,37.9930889 L54.7683175,37.9030889 L54.8103175,37.9030889 L54.8103175,37.8370889 L54.8883175,37.8190889 L54.9063175,37.8010889 L54.9183175,37.7470889 L54.9963175,37.6330889 C55.0043176,37.6130888 55.0083175,37.5890891 55.0083175,37.5610889 Z" id="zelsmoke" fill="#000000" transform="translate(43.458318, 38.059089) rotate(-30.000000) translate(-43.458318, -38.059089) "></path>
                            </g>
                        </g>
                    </g>
                </g>
            </g>
        </g>
    </g>
</svg>