<svg width="61px" height="100px" viewBox="0 0 61 100" version="1.1" xmlns="http://www.w3.org/2000/svg" xmlns:xlink="http://www.w3.org/1999/xlink">
    <g id="main-page" stroke="none" stroke-width="1" fill="none" fill-rule="evenodd">
        <g id="Screen-1920" transform="translate(-1126.000000, -3229.000000)">
            <g id="order" transform="translate(351.000000, 3051.000000)">
                <g id="choice-bowl" transform="translate(351.000000, 166.000000)">
                    <g id="item-3" transform="translate(392.000000, 0.000000)">
                        <g id="content">
                            <g id="icon-pineapple" transform="translate(32.000000, 12.000000)">
                                <g id="Group" transform="translate(7.617188, 14.843750)" fill="#46C373">
                                    <path d="M22.4425781,12.890625 C26.5105469,5.30566406 35.0234375,0.090625 44.8798828,0.090625 C44.8798828,0.090625 38.01875,5.61113281 34.4658203,13.81875 L22.4425781,12.890625 Z" id="Path"></path>
                                    <path d="M10.4376953,13.81875 C6.88457031,5.61113281 0.0236328125,0.090625 0.0236328125,0.090625 C9.88007813,0.090625 18.3929688,5.30566406 22.4609375,12.890625 L10.4376953,13.81875 Z" id="Path"></path>
                                </g>
                                <g id="Group" transform="translate(12.890625, 1.953125)" fill="#A5DC69">
                                    <path d="M11.1025391,12.1048828 C11.1025391,5.41328125 15.4919922,7.10542736e-15 17.1900391,7.10542736e-15 C18.6267578,7.10542736e-15 23.2492188,5.41328125 23.2492188,12.1048828 L17.2025391,18.6441406 L11.1025391,12.1048828 Z" id="Path"></path>
                                    <path d="M7.03027344,15.7994141 C4.55195313,9.19453125 0.1359375,4.79726562 0.1359375,4.79726562 C9.56894531,4.79726562 17.2019531,13.4541016 17.2019531,24.1523438 L7.03027344,15.7994141 Z" id="Path"></path>
                                    <path d="M17.1761719,24.1525391 C17.1761719,13.4542969 24.8091797,4.79746094 34.2421875,4.79746094 C34.2421875,4.79746094 29.8263672,9.19472656 27.3478516,15.7996094 L17.1761719,24.1525391 Z" id="Path"></path>
                                </g>
                                <path d="M24.8035156,27.734375 L35.3525391,27.734375 C47.9726563,27.734375 58.203125,37.9648438 58.203125,50.5847656 L58.203125,75.1962891 C58.203125,87.8164062 47.9726563,98.046875 35.3527344,98.046875 L24.8037109,98.046875 C12.1835938,98.046875 1.953125,87.8164062 1.953125,75.1964844 L1.953125,50.5847656 C1.953125,37.9648438 12.1835938,27.734375 24.8035156,27.734375 Z" id="Path" fill="#F5B955"></path>
                                <path d="M24.4791016,81.5923828 C26.7859375,80.853125 28.7550781,79.3751953 30.1054688,77.4154297 C31.4554688,79.3751953 33.4246094,80.8529297 35.7316406,81.5923828 C35.9298828,81.6558594 36.1306641,81.6861328 36.328125,81.6861328 C37.1542969,81.6861328 37.921875,81.1576172 38.1876953,80.3285156 C38.5169922,79.3011719 37.9511719,78.2015625 36.9238281,77.8724609 C34.996875,77.2548828 33.4378906,75.8324219 32.6472656,73.9699219 L31.9035156,72.2183594 C31.5972656,71.4970703 30.8894531,71.0285156 30.1056641,71.0285156 C29.321875,71.0285156 28.6140625,71.496875 28.3078125,72.2183594 L27.5642578,73.9697266 C26.7730469,75.8324219 25.2142578,77.2550781 23.2873047,77.8724609 C22.2599609,78.2017578 21.6943359,79.3011719 22.0234375,80.3285156 C22.3523438,81.3556641 23.4513672,81.9216797 24.4791016,81.5923828 Z" id="Path" fill="#000000"></path>
                                <path d="M36.3640625,62.0960938 C34.6591797,61.5496094 33.2798828,60.2910156 32.5800781,58.6431641 L31.903125,57.0492188 C31.596875,56.3279297 30.8892578,55.8595703 30.1054688,55.8595703 C29.3216797,55.8595703 28.6140625,56.3279297 28.3078125,57.0492188 L27.6306641,58.6433594 C26.9310547,60.2912109 25.5517578,61.5498047 23.846875,62.0962891 C22.8195312,62.4255859 22.2537109,63.5251953 22.5830078,64.5523438 C22.9123047,65.5794922 24.0115234,66.1457031 25.0388672,65.8162109 C27.0947266,65.1572266 28.8607422,63.8652344 30.1052734,62.1517578 C31.3498047,63.8652344 33.1158203,65.1572266 35.1716797,65.8162109 C35.3699219,65.8796875 35.5707031,65.9099609 35.7681641,65.9099609 C36.5943359,65.9099609 37.3619141,65.38125 37.6277344,64.5523438 C37.9572266,63.525 37.3912109,62.4253906 36.3640625,62.0960938 Z" id="Path" fill="#000000"></path>
                                <path d="M24.4585938,50.0392578 C26.7748047,49.2970703 28.7513672,47.8125 30.1054688,45.8433594 C31.4595703,47.8125 33.4361328,49.2970703 35.7523438,50.0392578 C35.9505859,50.1027344 36.1513672,50.1330078 36.3488281,50.1330078 C37.175,50.1330078 37.9427734,49.6042969 38.2083984,48.7753906 C38.5375,47.7480469 37.9714844,46.6486328 36.9443359,46.3193359 C35.0091797,45.6992188 33.4435547,44.2707031 32.6494141,42.4001953 L31.9033203,40.6427734 C31.5970703,39.9214844 30.8892578,39.4529297 30.1054688,39.4529297 C29.3216797,39.4529297 28.6138672,39.9212891 28.3076172,40.6427734 L27.5617188,42.4 C26.7673828,44.2705078 25.2017578,45.6990234 23.2666016,46.3191406 C22.2394531,46.6484375 21.6736328,47.7478516 22.0025391,48.7751953 C22.3316406,49.8025391 23.4306641,50.3683594 24.4585938,50.0392578 Z" id="Path" fill="#000000"></path>
                                <path d="M17.015625,54.0714844 C15.9917969,53.7333984 14.8869141,54.2890625 14.5484375,55.3132813 C14.2099609,56.3375 14.7660156,57.4419922 15.7902344,57.7804687 L15.8693359,57.80625 C16.0681641,57.8701172 16.2695313,57.9003906 16.4675781,57.9003906 C17.2933594,57.9003906 18.0603516,57.3726563 18.3267578,56.5443359 C18.6566406,55.5173828 18.0919922,54.4173828 17.0650391,54.0871094 L17.015625,54.0714844 Z" id="Path" fill="#000000"></path>
                                <path d="M21.9382813,42.5353516 C22.7634766,42.5353516 23.5302734,42.0082031 23.7970703,41.1804688 C24.1277344,40.1537109 23.5636719,39.0533203 22.5369141,38.7226563 C21.1046875,38.2613281 19.9472656,37.2015625 19.3611328,35.8158203 L18.7685547,34.4138672 C18.4632813,33.6919922 17.75625,33.2224609 16.9728516,33.2212891 C16.9716797,33.2212891 16.9707031,33.2212891 16.9695313,33.2212891 C16.1871094,33.2212891 15.4800781,33.6882813 15.1730469,34.4080078 L14.5757813,35.8082031 C13.9855469,37.1921875 12.8246094,38.2482422 11.3910156,38.7050781 C10.3630859,39.0326172 9.79550781,40.13125 10.1232422,41.1589844 C10.4507813,42.1869141 11.5494141,42.7541016 12.5769531,42.4267578 C14.3304688,41.8679688 15.8511719,40.7992188 16.9626953,39.3808594 C18.0703125,40.8027344 19.5875,41.8763672 21.3388672,42.440625 C21.5380859,42.5048828 21.7400391,42.5353516 21.9382813,42.5353516 Z" id="Path" fill="#000000"></path>
                                <path d="M38.2181641,42.5353516 C38.4166016,42.5353516 38.6185547,42.5048828 38.8173828,42.440625 C40.56875,41.8763672 42.0859375,40.8029297 43.1933594,39.3808594 C44.3050781,40.7992188 45.8259766,41.8679688 47.5791016,42.4267578 C48.6060547,42.7541016 49.7054688,42.1867187 50.0328125,41.1589844 C50.3605469,40.13125 49.7927734,39.0326172 48.7650391,38.7050781 C47.3314453,38.2482422 46.1707031,37.1921875 45.5802734,35.8080078 L44.9830078,34.4080078 C44.6759766,33.6880859 43.9689453,33.2212891 43.1865234,33.2212891 L43.1835938,33.2212891 C42.4,33.2224609 41.6929688,33.6921875 41.3878906,34.4138672 L40.7953125,35.815625 C40.209375,37.2015625 39.0519531,38.2611328 37.6197266,38.7226563 C36.5929687,39.0533203 36.0287109,40.1539063 36.3595703,41.1806641 C36.6261719,42.0083984 37.3927734,42.5353516 38.2181641,42.5353516 Z" id="Path" fill="#000000"></path>
                                <path d="M44.9681641,93.7898438 C44.9607422,93.7943359 44.9447266,93.8042969 44.9373047,93.8089844 C44.0259766,94.3861328 43.7484375,95.596875 44.3255859,96.5082031 C44.6980469,97.0964844 45.3300781,97.4195312 45.9763672,97.4195312 C46.33125,97.4195312 46.6908203,97.3220703 47.0138672,97.1173828 C47.0212891,97.1128906 47.0373047,97.1029297 47.0447266,97.0982422 C47.9560547,96.5210937 48.2335938,95.3101563 47.6564453,94.3990234 C47.0796875,93.4876953 45.8792969,93.2126953 44.9681641,93.7898438 Z" id="Path" fill="#000000"></path>
                                <path d="M44.7398437,27.6277344 C48.19375,20.9748047 53.6632812,16.503125 53.7214844,16.4560547 C54.3669922,15.9367188 54.6144531,15.0666016 54.3392578,14.2853516 C54.0640625,13.5041016 53.3257812,12.98125 52.4970703,12.98125 C49.6060547,12.98125 46.7595703,13.4052734 44.0542969,14.2257812 C46.1736328,10.5005859 48.4814453,8.16367188 48.5105469,8.13417969 C49.0708984,7.57636719 49.2394531,6.73554687 48.9378906,6.0046875 C48.6359375,5.27382812 47.9234375,4.79707031 47.1326172,4.79707031 C43.4205078,4.79707031 39.9541016,5.99589844 37.0236328,8.06445312 C36.4148437,6.36132812 35.5638672,4.72460938 34.5382812,3.3078125 C33.4460938,1.79882813 31.7859375,0 30.0806641,0 C27.6304687,0 24.6220703,3.59589844 23.0824219,8.02734375 C20.1632812,5.98183594 16.7164062,4.79726563 13.0267578,4.79726563 C12.2359375,4.79726563 11.5234375,5.27402344 11.2214844,6.00488281 C10.9197266,6.73574219 11.0882812,7.57636719 11.6488281,8.134375 C11.6794922,8.16503906 13.9894531,10.4904297 16.1142578,14.2357422 C13.4,13.4089844 10.5431641,12.98125 7.64101562,12.98125 C6.81328125,12.98125 6.07617187,13.5037109 5.80039062,14.2839844 C5.52441406,15.0644531 5.77128906,15.9345703 6.41484375,16.4548828 C6.47460937,16.503125 11.9476562,20.9775391 15.4013672,27.6339844 C6.3734375,31.3460937 0,40.234375 0,50.5847656 L0,75.1964844 C0,88.8732422 11.1269531,100 24.8035156,100 L35.3527344,100 C36.3892578,100 37.4328125,99.9351563 38.4548828,99.8076172 C39.5251953,99.6738281 40.2845703,98.6978516 40.1509766,97.6275391 C40.0173828,96.5570313 39.0392578,95.7970703 37.9708984,95.9314453 C37.1089844,96.0390625 36.228125,96.09375 35.3529297,96.09375 L24.8037109,96.09375 C18.2634766,96.09375 12.4164063,93.0728516 8.58164062,88.3541016 C10.3132812,87.3732422 11.7814453,85.9841797 12.8535156,84.3015625 C14.3720703,86.6851562 16.6833984,88.4839844 19.4167969,89.3599609 C19.6150391,89.4234375 19.8158203,89.4537109 20.0132812,89.4537109 C20.8394531,89.4537109 21.6072266,88.925 21.8728516,88.0960937 C22.2021484,87.0689453 21.6363281,85.9693359 20.6089844,85.6400391 C18.3101562,84.9033203 16.4505859,83.2064453 15.5070312,80.9845703 L14.6513672,78.9693359 C14.3451172,78.2480469 13.6373047,77.7794922 12.8535156,77.7794922 C12.0699219,77.7794922 11.3621094,78.2478516 11.0558594,78.9691406 L10.2,80.984375 C9.44257812,82.7679687 8.09414062,84.2119141 6.40292969,85.09375 C4.8109375,82.1460938 3.90625,78.775 3.90625,75.1964844 L3.90625,73.1421875 C6.13125,72.1705078 8.00957031,70.5625 9.3078125,68.525 C10.8263672,70.9087891 13.1376953,72.7074219 15.8710937,73.5833984 C16.0693359,73.646875 16.2701172,73.6771484 16.4675781,73.6771484 C17.29375,73.6771484 18.0615234,73.1484375 18.3271484,72.3195312 C18.6564453,71.2923828 18.090625,70.1927734 17.0632812,69.8634766 C14.7642578,69.1267578 12.9048828,67.4298828 11.9613281,65.2078125 L11.1054687,63.1925781 C10.7992187,62.4712891 10.0914062,62.0029297 9.3078125,62.0029297 C8.52402344,62.0029297 7.81621094,62.4712891 7.50996094,63.1927734 L6.65449219,65.2080078 C6.06113281,66.6050781 5.10527344,67.7941406 3.90625,68.6677734 L3.90625,57.3658203 C6.15742187,56.3826172 8.05371094,54.7482422 9.35351562,52.6765625 C9.9609375,53.2400391 10.8859375,53.3730469 11.6443359,52.9431641 C12.5830078,52.4115234 12.9126953,51.2197266 12.3810547,50.2810547 C12.2253906,50.0066406 12.0841797,49.7207031 11.9615234,49.4314453 L11.1056641,47.4160156 C10.7994141,46.6947266 10.0916016,46.2263672 9.30800781,46.2263672 C8.52421875,46.2263672 7.81640625,46.6947266 7.51015625,47.4162109 L6.6546875,49.4314453 C6.06132812,50.8285156 5.10546875,52.0175781 3.90644531,52.8912109 L3.90644531,50.5847656 C3.90625,39.0621094 13.2806641,29.6875 24.8035156,29.6875 L35.3527344,29.6875 C46.8755859,29.6875 56.25,39.0621094 56.25,50.5847656 L56.25,52.8912109 C55.0509766,52.0173828 54.0951172,50.8285156 53.5019531,49.43125 L52.6460937,47.4158203 C52.3398438,46.6945313 51.6322266,46.2261719 50.8484375,46.2261719 C50.0646484,46.2261719 49.3570312,46.6945313 49.0507812,47.4158203 L48.1947266,49.43125 C47.2513672,51.653125 45.3917969,53.35 43.0929688,54.0867188 C42.065625,54.4160156 41.5,55.5154297 41.8291016,56.5427734 C42.1582031,57.5701172 43.2574219,58.1359375 44.2849609,57.8066406 C47.0183594,56.9306641 49.3296875,55.1318359 50.8482422,52.7482422 C52.1462891,54.7857422 54.0248047,56.3935547 56.2498047,57.3654297 L56.2498047,68.6675781 C55.0507812,67.79375 54.0949219,66.6048828 53.5017578,65.2076172 L52.6458984,63.1923828 C52.3396484,62.4710938 51.6320313,62.0027344 50.8482422,62.0027344 C50.0644531,62.0027344 49.3568359,62.4710938 49.0505859,63.1923828 L48.1945313,65.2078125 C47.2511719,67.4296875 45.3916016,69.1265625 43.0927734,69.8632813 C42.0654297,70.1925781 41.4998047,71.2919922 41.8289063,72.3193359 C42.1580078,73.3466797 43.2572266,73.9128906 44.2847656,73.5832031 C47.0181641,72.7072266 49.3294922,70.9083984 50.8480469,68.5248047 C52.1460938,70.5623047 54.0246094,72.1701172 56.2496094,73.1419922 L56.2496094,75.1962891 C56.2496094,78.6996094 55.3849609,82.0853516 53.7609375,85.0978516 C52.0660156,84.2164063 50.7146484,82.7705078 49.9560547,80.9841797 L49.1001953,78.9689453 C48.7939453,78.2476563 48.0861328,77.7792969 47.3025391,77.7792969 C46.51875,77.7792969 45.8109375,78.2476563 45.5046875,78.9691406 L44.6492188,80.984375 C43.7054688,83.20625 41.8457031,84.9033203 39.5470703,85.6400391 C38.5197266,85.9693359 37.9541016,87.06875 38.2832031,88.0960938 C38.6123047,89.1234375 39.7117188,89.6896484 40.7390625,89.3599609 C43.4724609,88.4839844 45.7835938,86.6853516 47.3023438,84.3015625 C48.3763672,85.9869141 49.8476563,87.3777344 51.5830078,88.3589844 C51.2248047,88.7996094 50.8484375,89.2285156 50.4519531,89.6427734 C49.70625,90.4220703 49.7332031,91.6583984 50.5126953,92.4042969 C51.2917969,93.15 52.5283203,93.1230469 53.2742188,92.3435547 C57.7121094,87.7066406 60.15625,81.6169922 60.15625,75.1964844 L60.15625,50.5847656 C60.15625,40.2287109 53.7755859,31.3361328 44.7398437,27.6277344 Z M38.61875,16.5259766 C38.4539063,16.6173828 38.2880859,16.7072266 38.1251953,16.8021484 C36.1125,17.9736328 34.2900391,19.3802734 32.6929688,20.9763672 C34.1285156,15.6291016 37.7441406,11.3738281 42.3412109,9.6 C41.0855469,11.4291016 39.7064453,13.7830078 38.61875,16.5259766 Z M30.0291016,4.0765625 C30.9708984,4.87226563 32.9570313,7.39179688 33.803125,10.9222656 C32.2931641,12.5865234 31.0296875,14.5304688 30.0798828,16.6783203 C29.1224609,14.5130859 27.8460938,12.5552734 26.3199219,10.8820313 C27.1546875,7.26386719 29.1076172,4.8140625 30.0291016,4.0765625 Z M17.8181641,9.59980469 C22.4238281,11.3769531 26.0443359,15.6445312 27.4746094,21.0054687 C25.8705078,19.3972656 24.0378906,17.9808594 22.0128906,16.8021484 C21.8589844,16.7126953 21.7025391,16.6279297 21.546875,16.5414062 C20.4582031,13.7919922 19.0759766,11.4324219 17.8181641,9.59980469 Z M19.1697266,26.4271484 C17.3582031,22.7548828 15.0074219,19.6853516 13.0066406,17.4513672 C18.46875,18.6214844 23.2515625,21.5626953 26.4945313,25.78125 L24.8035156,25.78125 C22.8662109,25.78125 20.9802734,26.0048828 19.1697266,26.4271484 Z M33.6431641,25.78125 C36.8861328,21.5625 41.6689453,18.6214844 47.1310547,17.4513672 C45.1310547,19.6845703 42.78125,22.7525391 40.9701172,26.4230469 C39.1646484,26.0033203 37.2841797,25.78125 35.3527344,25.78125 L33.6431641,25.78125 Z" id="Shape" fill="#000000" fill-rule="nonzero"></path>
                            </g>
                        </g>
                    </g>
                </g>
            </g>
        </g>
    </g>
</svg>