<svg width="185" height="34" viewBox="0 0 185 34" xmlns="http://www.w3.org/2000/svg"><g fill="none" fill-rule="evenodd"><path fill="#32846B" fill-rule="nonzero" d="M0 0h61v34H0z"/><path d="M26.48 23.16V27H11.12v-3.008l8.768-10.368h-8.544v-3.84h14.848v3.008L17.424 23.16h9.056zm19.84-4.704c0 .064-.032.512-.096 1.344H33.2c.235 1.067.79 1.91 1.664 2.528.875.619 1.963.928 3.264.928.896 0 1.69-.133 2.384-.4.693-.267 1.339-.688 1.936-1.264l2.656 2.88c-1.621 1.856-3.99 2.784-7.104 2.784-1.941 0-3.659-.379-5.152-1.136-1.493-.757-2.645-1.808-3.456-3.152-.81-1.344-1.216-2.87-1.216-4.576 0-1.685.4-3.205 1.2-4.56a8.407 8.407 0 0 1 3.296-3.168c1.397-.757 2.96-1.136 4.688-1.136 1.685 0 3.21.363 4.576 1.088a7.941 7.941 0 0 1 3.216 3.12c.779 1.355 1.168 2.928 1.168 4.72zm-8.928-5.152c-1.13 0-2.08.32-2.848.96-.768.64-1.237 1.515-1.408 2.624h8.48c-.17-1.088-.64-1.957-1.408-2.608-.768-.65-1.707-.976-2.816-.976zM49.648 3.256h4.992V27h-4.992V3.256z" fill="#EAEAEC"/><path d="M73.096 27.256c-1.43 0-2.827-.176-4.192-.528-1.365-.352-2.453-.795-3.264-1.328l1.664-3.584c.768.49 1.696.89 2.784 1.2 1.088.31 2.155.464 3.2.464 2.112 0 3.168-.523 3.168-1.568 0-.49-.288-.843-.864-1.056-.576-.213-1.461-.395-2.656-.544-1.408-.213-2.57-.459-3.488-.736a5.411 5.411 0 0 1-2.384-1.472c-.672-.704-1.008-1.707-1.008-3.008 0-1.088.315-2.053.944-2.896.63-.843 1.547-1.499 2.752-1.968 1.205-.47 2.63-.704 4.272-.704 1.216 0 2.427.133 3.632.4s2.203.635 2.992 1.104l-1.664 3.552c-1.515-.853-3.168-1.28-4.96-1.28-1.067 0-1.867.15-2.4.448-.533.299-.8.683-.8 1.152 0 .533.288.907.864 1.12.576.213 1.493.416 2.752.608 1.408.235 2.56.485 3.456.752a5.192 5.192 0 0 1 2.336 1.456c.661.704.992 1.685.992 2.944 0 1.067-.32 2.016-.96 2.848-.64.832-1.573 1.477-2.8 1.936-1.227.459-2.683.688-4.368.688zm33.248-17.728c2.155 0 3.867.635 5.136 1.904 1.27 1.27 1.904 3.173 1.904 5.712V27h-4.992v-9.088c0-1.365-.283-2.384-.848-3.056-.565-.672-1.37-1.008-2.416-1.008-1.173 0-2.101.379-2.784 1.136-.683.757-1.024 1.883-1.024 3.376V27h-4.992v-9.088c0-2.71-1.088-4.064-3.264-4.064-1.152 0-2.07.379-2.752 1.136-.683.757-1.024 1.883-1.024 3.376V27h-4.992V9.784h4.768v1.984a6.3 6.3 0 0 1 2.352-1.664c.928-.384 1.947-.576 3.056-.576 1.216 0 2.315.24 3.296.72a5.837 5.837 0 0 1 2.368 2.096 7.062 7.062 0 0 1 2.672-2.08c1.077-.49 2.256-.736 3.536-.736zm19.904 17.728c-1.813 0-3.44-.379-4.88-1.136-1.44-.757-2.565-1.808-3.376-3.152-.81-1.344-1.216-2.87-1.216-4.576 0-1.707.405-3.232 1.216-4.576.81-1.344 1.936-2.395 3.376-3.152 1.44-.757 3.067-1.136 4.88-1.136 1.813 0 3.435.379 4.864 1.136 1.43.757 2.55 1.808 3.36 3.152s1.216 2.87 1.216 4.576c0 1.707-.405 3.232-1.216 4.576-.81 1.344-1.93 2.395-3.36 3.152-1.43.757-3.05 1.136-4.864 1.136zm0-4.096c1.28 0 2.33-.432 3.152-1.296.821-.864 1.232-2.021 1.232-3.472 0-1.45-.41-2.608-1.232-3.472-.821-.864-1.872-1.296-3.152-1.296s-2.336.432-3.168 1.296c-.832.864-1.248 2.021-1.248 3.472 0 1.45.416 2.608 1.248 3.472.832.864 1.888 1.296 3.168 1.296zm20.16-2.912l-2.4 2.368V27h-4.992V3.256h4.992v13.44l7.296-6.912h5.952l-7.168 7.296 7.808 9.92h-6.048l-5.44-6.752zm29.856-1.792c0 .064-.032.512-.096 1.344h-13.024c.235 1.067.79 1.91 1.664 2.528.875.619 1.963.928 3.264.928.896 0 1.69-.133 2.384-.4.693-.267 1.339-.688 1.936-1.264l2.656 2.88c-1.621 1.856-3.99 2.784-7.104 2.784-1.941 0-3.659-.379-5.152-1.136-1.493-.757-2.645-1.808-3.456-3.152-.81-1.344-1.216-2.87-1.216-4.576 0-1.685.4-3.205 1.2-4.56a8.407 8.407 0 0 1 3.296-3.168c1.397-.757 2.96-1.136 4.688-1.136 1.685 0 3.21.363 4.576 1.088a7.941 7.941 0 0 1 3.216 3.12c.779 1.355 1.168 2.928 1.168 4.72zm-8.928-5.152c-1.13 0-2.08.32-2.848.96-.768.64-1.237 1.515-1.408 2.624h8.48c-.17-1.088-.64-1.957-1.408-2.608-.768-.65-1.707-.976-2.816-.976zm14.144 13.952c-.875 0-1.61-.299-2.208-.896-.597-.597-.896-1.344-.896-2.24 0-.917.299-1.659.896-2.224.597-.565 1.333-.848 2.208-.848.875 0 1.61.283 2.208.848.597.565.896 1.307.896 2.224 0 .896-.299 1.643-.896 2.24-.597.597-1.333.896-2.208.896z" fill="#545B6B"/></g></svg>