<svg width="864px" height="864px" viewBox="0 0 864 864" version="1.1" xmlns="http://www.w3.org/2000/svg">
    <g id="screens" stroke="none" stroke-width="1" fill="none" fill-rule="evenodd" opacity="0.0525251116">
        <g id="Screen-1920" transform="translate(-528.000000, -1346.000000)">
            <g id="how-it-works" transform="translate(352.000000, 1105.000000)">
                <g id="hookah" transform="translate(176.000000, 241.000000)">
                    <path d="M655.44216,12.2073713 C650.389291,4.57693657 642.292842,0 633.689131,0 L431.310869,0 C422.713746,0 414.610709,4.57693657 409.55784,12.2073713 C404.99906,19.3277862 404.99906,28.9983008 408.543314,36.6221123 L459.13788,141.752547 C463.690074,150.403024 472.293784,156 481.905434,156 L583.094566,156 C592.706216,156 601.309926,150.403024 605.86212,141.752547 L656.456686,36.6221123 C660.00094,28.9983008 660.00094,19.3277862 655.44216,12.2073713 Z" id="Path" fill="#767D8C"></path>
                    <path d="M584.194501,156 L533,156 L533,0 L635.389002,0 C644.088067,0 652.287188,4.57693657 657.399972,12.2073713 C662.012808,19.3277862 662.012808,28.9983008 658.426528,36.6221123 L607.232027,141.752547 C602.625854,150.403024 593.920124,156 584.194501,156 Z" id="Path" fill="#5D6473"></path>
                    <path d="M465.482697,501 C461.646377,501 457.763597,500.12587 454.106482,498.297537 L371.094628,456.559512 C358.5038,450.227076 353.39977,434.839723 359.698502,422.174851 C366.023785,409.489961 381.276142,404.385311 393.900157,410.717746 L476.905372,452.455773 C489.4962,458.788208 494.60023,474.175561 488.301498,486.840432 C483.821367,495.821949 474.841193,501 465.482697,501 Z" id="Path" fill="#425688"></path>
                    <path d="M176.958042,814 L151.678322,814 C68.0379976,814 0,745.817708 0,662 C0,578.182292 68.0379976,510 151.678322,510 L456.72028,510.046181 C470.689958,510.046181 482,521.406597 482,535.379514 C482,549.385416 470.670209,560.666667 456.72028,560.666667 L151.678322,560.620486 C95.9115217,560.620486 50.5594406,606.11493 50.5594406,662 C50.5594406,717.88507 95.9115217,763.333333 151.678322,763.333333 L176.958042,763.333333 C190.92772,763.333333 202.237762,774.667362 202.237762,788.666667 C202.237762,802.665971 190.92772,814 176.958042,814 Z" id="Path" fill="#425688"></path>
                    <path d="M330.75,813 L280.25,813 C266.296746,813 255,801.815103 255,788 C255,774.184897 266.296746,763 280.25,763 L330.75,763 C344.703254,763 356,774.184897 356,788 C356,801.815103 344.703254,813 330.75,813 Z" id="Path" fill="#425688"></path>
                    <path d="M763.189405,560 C763.136886,560 763.090931,560 763.064672,560 L610.20099,559.927372 C596.270273,559.927372 584.991776,548.736162 584.991776,534.745496 C584.991776,520.735022 596.296534,509.391954 610.20099,509.391954 L763.117191,509.46458 L763.163146,509.46458 C776.601495,509.46458 789.186407,504.242015 798.659557,494.734437 C808.290263,485.055193 813.581573,472.081311 813.581573,458.216093 C813.581573,444.694204 808.336218,431.997625 798.836808,422.463637 C789.357095,412.929648 776.752488,407.707084 763.360093,407.707084 C763.333832,407.707084 763.287879,407.707084 763.241924,407.707084 C721.167485,407.80612 679.926786,424.345346 650.181228,454.254602 L618.032915,486.593572 C608.185566,496.497301 592.232861,496.497301 582.385512,486.593572 C572.538163,476.689846 572.538163,460.645807 582.385512,450.74208 L614.533824,418.403108 C653.752533,378.940056 707.624097,357.151856 763.117191,357 L763.360093,357 C790.217095,357 815.426309,367.49795 834.431693,386.565927 C853.515856,405.673517 864,431.126097 864,458.216093 C864,485.649418 853.437077,511.346289 834.287265,530.612339 C815.301577,549.673714 790.046409,560 763.189405,560 Z" id="Path" fill="#384974"></path>
                    <path d="M633.720448,537.100895 L607.400496,641 L457.599504,641 L431.279552,537.100895 C423.180599,505.82806 430.264712,473.550448 450.508802,447.826866 C470.25206,422.608955 501.119026,410 532.5,410 C563.880974,410 594.74794,422.608955 614.491198,447.826866 C634.735288,473.550448 641.819401,505.82806 633.720448,537.100895 Z" id="Path" fill="#EAEAEC"></path>
                    <path d="M633.73614,537.100895 L607.542121,641 L533,641 L533,410 C564.230826,410 594.950103,422.608955 614.598896,447.826866 C634.746124,473.550448 641.796342,505.82806 633.73614,537.100895 Z" id="Path" fill="#C6C6C7"></path>
                    <g id="Group" transform="translate(152.000000, 205.000000)" fill="#767D8C">
                        <path d="M77.625,659 C35.7539063,659 0,624.888301 0,582.961538 C0,541.034776 35.7539063,506.923077 77.625,506.923077 C119.496094,506.923077 153.5625,541.034776 153.5625,582.961538 C153.5625,624.888301 119.496094,659 77.625,659 Z" id="Path"></path>
                        <path d="M432,50.6923077 C432,78.5730769 409.21875,101.384615 381.375,101.384615 C353.53125,101.384615 330.75,78.5730769 330.75,50.6923077 C330.75,22.8115385 353.53125,0 381.375,0 C409.21875,0 432,22.8115385 432,50.6923077 Z" id="Path"></path>
                        <path d="M432,152.076923 C432,179.957692 409.21875,202.769231 381.375,202.769231 C353.53125,202.769231 330.75,179.957692 330.75,152.076923 C330.75,124.196154 353.53125,101.384615 381.375,101.384615 C409.21875,101.384615 432,124.196154 432,152.076923 Z" id="Path"></path>
                    </g>
                    <path d="M534,408 L534,307 C561.5,307 584,329.725 584,357.5 C584,385.275 561.5,408 534,408 Z" id="Path" fill="#545B6B"></path>
                    <path d="M534,306 L534,205 C561.5,205 584,227.725 584,255.5 C584,283.275 561.5,306 534,306 Z" id="Path" fill="#545B6B"></path>
                    <path d="M659.25534,776.440478 C692.216101,753.165079 710.98102,721.276728 710.98102,686.864458 C710.98102,608.418718 626.301181,610.613142 553.783545,611.120562 C553.783545,611.120562 543.641773,611.120562 533.5,611.120562 L513.724864,611.120562 C442.732456,610.613142 356.01898,608.418718 356.01898,686.864458 C356.01898,721.276728 374.783899,753.165079 407.74466,776.440478 L363.625309,820.981368 C356.01898,828.065473 353.991945,838.694923 358.046014,848.309534 C362.106684,857.924146 371.231639,864 381.373411,864 L685.626589,864 C695.768361,864 704.893316,857.924146 708.953986,848.309534 C713.008055,838.694923 710.98102,828.065473 703.374691,820.981368 L659.25534,776.440478 Z" id="Path" fill="#767D8C"></path>
                    <path d="M702.396171,820.981368 C709.981074,828.065473 712.002398,838.694923 707.959749,848.309534 C703.910518,857.924146 694.811267,864 684.698063,864 L533,864 L533,611.120562 L553.226408,611.120562 C625.539769,610.613142 709.981074,608.418718 709.981074,686.864458 C709.981074,721.276728 691.269013,753.165079 658.401099,776.440478 L702.396171,820.981368 Z" id="Path" fill="#545B6B"></path>
                    <path d="M760,129.25 C760,171.162371 726.057292,205 684,205 L380,205 C337.942708,205 304,171.162371 304,129.25 C304,115.106054 315.142708,104 329.333333,104 L734.666667,104 C748.857292,104 760,115.106054 760,129.25 Z" id="Path" fill="#425688"></path>
                    <path d="M760,129.25 C760,171.162371 726.206164,205 684.333333,205 L533,205 L533,104 L734.777778,104 C748.906164,104 760,115.106054 760,129.25 Z" id="Path" fill="#384974"></path>
                </g>
            </g>
        </g>
    </g>
</svg>